<?xml version="1.0" encoding="UTF-8"?><svg id="a" xmlns="http://www.w3.org/2000/svg" viewBox="0 0 478.97 107.87"><path d="M86.46,44.67c-3.5,4.13-7.79,11.21-12.27,18.9,2.95-.29,5.36-.71,6.29-1.24,2.88-1.61,5.26-4.82,9.58-5.29,.95-.1,1.48,.01,1.53,.88,.03,.62-13.2,21.5-15.09,21.67-1.9,.19-5.78-1.27-5.87-2.92-.08-1.56,3.68-6.64,3.64-7.52-.01-.26-.34-.4-.55-.38-.21,.02-1.26,.12-2.74,.26-5.73,9.99-11.47,19.84-15.59,24.12-8.04,8.36-16.21,13.9-28.22,14.64C13.37,108.65,.77,101.66,.03,87.18c-.7-13.69,12.09-23.65,23.68-24.34,10.96-.64,18.06,5.97,18.45,13.55,.41,7.91-8.38,16.12-21.33,16.84-1.16,.06-2.54-.04-2.56-.39-.02-.35,1.76-.62,2.99-1.38,1.33-.76,10.66-6.48,10.17-15.99-.29-5.57-4.47-8.88-10.37-8.55-7.58,.42-14.6,7.7-14.14,16.76,.49,9.5,7.99,15.85,18.63,15.22,14.43-.87,22.95-16.44,28.92-27.94-2.84,.33-5.25,.78-6.82,1.08-2.4,.62-2.51,2.55-3.36,2.62-.74,.06-1.48-.06-1.54-1.2-.06-1.15,1.5-7.85,13.4-8.84,.42-.04,.95-.08,1.58-.05,6.58-12.01,14.29-18.6,18.32-20.57,0-.14-.01-.29-.02-.43-2.08,.82-4.06,1.36-7.33,1.67-7.16,.68-17.59-2.44-26.44-1.79-5.9,.43-9.01,3.6-8.86,6.56,.14,2.7,3.17,4.07,6.12,3.86,1.48-.11,2.19-.51,2.22-.07,.02,.35-2.41,2.54-6.73,2.83-4.53,.31-8.48-2.52-8.69-6.61-.4-7.93,8.62-13.34,19.78-14.2,13.17-1.06,18.14,3.1,37.52,1.12,5.37-.56,9.24-3.7,10.71-3.86,1.37-.15,3.71,.11,3.76,1.06,.07,1.39-6.25,4.12-11.64,10.54Z"/><path d="M97.54,64.52c2.32-.26,5.39-.27,7.39-.5,.42-.05,.94-.2,1.89-.31,2.42-.29,5.43,.57,7.49,1.37,2.38,.93,4.38,2.78,5.74,4.44,1.45,1.48,2.22,4.09,2.33,6.17,.11,2.08,.32,2.14,.68,4.98,.17,3.39-.58,5.14-1.15,6.52-.66,1.57-1.31,3.4-3.09,5.81-1.99,2.61-4.37,3.69-6.34,4.45-2.08,.69-5.49,2.58-7.57,3.18-1.36,.33-3.04,.7-4.51,.87-1.05,.12-1.9,.13-2.75,.05-2.13-.29-3.42-.66-7.07-1.49-3.64-.74-5.13-3.03-6.48-4.46-1.44-1.33-3.79-3.71-3.89-5.63-.61-1.6-1.45-3.52-1.54-5.26,0-2.1,.96-4.03,1.4-5.82,.33-1.78,2.24-3.9,3.15-4.61,.93-.53,1.17-1.87,2.06-3.19,.89-1.32,3.28-2.18,5.1-3.87,1.93-1.69,2.89-1.45,5.18-2.32,.63-.16,1.25-.32,1.99-.4Zm-9.73,8.67c-.9,.97-1.53,1.21-3.1,3.65-1.46,2.42-1.74,3.15-1.86,5-.06,.88-.03,1.49,0,2.01,.03,.61,.06,1.13,.42,1.97,.51,1.69,.74,4.12,1.51,4.65,.67,.72,1.9,4.08,3.32,4.89,1.52,.62,3.21,2.71,4.27,2.59,.32-.03,.81-.7,.8-.87-.02-.35-.87-2.44-1.54-3.24-.93-1.56-2.24-2.46-2.43-4.1-.16-1.12-1.16-1.97-1.25-3.71-.02-.35,.07-.79,.04-1.32,.1-2.19-.27-3.12,.56-5.56,.84-2.27-.11-2.09,1.57-4.45,1.38-2.07,4.09-4.99,4.07-5.43-.21,.02-1.27,.05-1.58,.09-.21,.02-1.75,1.07-2.16,1.37-1.22,.92-1.51,1.56-2.63,2.47Zm6.56,1.99c-1.3,3.64-1.73,3.42-1.64,7.26,.08,1.65-.08,2.63-.03,3.5,.05,.96,.3,1.8,1.03,3.55,1.44,3.34,.76,4.55,2.52,5.66,1.65,1.21,3.88,1.31,6,1.33,1.58-.18,4.06-1.35,4.75-2.48,1-1.25,1.78-4.67,2.12-6.28,.35-1.44,.75-2.01,1.13-4.85,.13-1.5,.09-2.28,.05-3.06-.04-.7-.07-1.3-.22-2.25-.31-1.97,.18-2.73-1.54-5.32-1.61-2.52-.44-4.4-3.74-4.71-1.17-.12-2.02-.11-2.86-.02-1.26,.15-1.99,.49-2.61,.82-2.32,2.27-3.36,2.65-4.95,6.85Zm18.23-6.14c.05,1.04,.79,3.05,.96,4.16,.13,.51,.15,.86,.17,1.29,.04,.7-.03,1.49,.06,3.31,.14,2.69,.48,3.09,.6,5.6,.12,2.43-.57,3.3-2.29,7.01-1.62,3.6-2.54,4.24-2.51,4.85,0,.09,.11,.16,.33,.14,.53-.06,1.67-.46,2.5-.91,1.45-.61,2.6-3.03,3.61-4.02,1-1.17,1.35-2.53,2.6-5.21,.96-1.96,1.01-3.1,.93-4.66-.05-1.04-.9-3.03-1.28-4.21-.48-1.08-.74-4.1-1.56-5.57-.92-1.46-2.76-2.19-3.62-2.44-.42,.05-.51,.32-.5,.67Z"/><path d="M131.3,96.55c-3.27,.43-7.97,1.64-7.77-.66,.19-2.47,5.68-.99,8.15-2.36-.12-10.64-.86-22.95-1.53-33.96-2.99-.48-10.15,2.61-9.38-.98,.35-1.44,3.02-1.08,4.6-1.28,8.53-1.09,17.97-3.24,25.41-5.06,.63-.17,2.4-.77,2.87,.13,1.05,1.95,.46,6.92,.96,10.44,2.49-5.33,10.34-13.59,24.5-14.8,17.54-1.47,11.05,22.98,13.03,36.76,2.13,.2,8.46-2.77,8.61,.18,.11,2.08-5.52,2.06-8.57,2.61-7.15,1.43-13.27,1.99-20.11,3.16-2.73,.49-8.68,2.48-8.2-.48,.27-1,3.03-.87,4.07-1.37-.63-8.12-.12-16.84-1.3-25.24-.33-2.22-1.04-5.79-3.47-5.53-2.96,.16-8.61,7.95-8.38,12.37,.34,6.65,.68,13.3,1.02,19.95,.95-.13,3.46-.75,3.85,.59,.65,2.27-5.38,2.69-8.54,3.04-6.22,.69-12.54,1.64-19.81,2.5Zm21.03-5.64c-1.04-11.91-.3-24.51-1.83-35.57-5.76,1.41-11.55,2.37-16.88,3.77,.02,10.66,1.6,22.94,1.54,34.13,5.38-.54,11.92-1.25,17.17-2.34Zm36.44-5.46c-1.39-8.53,1.41-28.26-4.14-33.02-3.78-3.28-14.26-.77-19.08,2.62,2.68,.57,4.13,4.03,4.52,7.38,.94,7.9,.53,18.53,1.32,25.76,5.9-.77,11.6-1.53,17.37-2.74Z"/><path d="M201.07,39.73c1.21-1.23,2.97-2.2,4.18-3.43,2.25-1.66,2.54-2.22,3.89-2.87,.52-.25,1.04-.42,1.46-.49,.84-.13,1.19,.43,1.23,1.21,.06,1.13,.32,2.05,.37,3,.03,.52-.06,.97-.13,1.59-.56,1.57-.28,2.84-.5,4.71,.01,.26-.08,.54-.06,.88,.08,1.56,.79,3.02,1.04,3.77,.13,.42,.98,.37,1.82,.24,.74-.11,1.47-.31,1.47-.31,.84-.13,.83-.3,2.52-.56,1.8-.02,3.69-.57,4.47,.27,.22,.23,.27,1.18,.29,1.44,.03,.61-.26,1.18-1.1,1.31-.94,.23-4.21,.65-5.9,.91-.21,.03-.54-.09-.75-.06-.95,.15-2.29,.79-2.37,1.33-.2,2.39-.37,5.13-.19,8.68-.14,3.52-.35,5.64-.22,8.16,.1,1.91,.85,2.14,.94,3.87,0,.12,.01,.23,.02,.35,.1,1.91,.93,3.7,1.33,5.12,.49,1.32,1.69,1.84,3.79,1.51,2-.31,3.13-1.01,3.59-2.48,.19-.38,.17-.81,.15-1.25-.03-.61-.17-1.28-.2-1.89,.27-.92,2-2.32,3.03-3,.72-.37,1.64-1.13,2.38-1.24,.32-.05,1.07,.27,1.19,.43,.45,.45,.79,.93,.83,1.62,.02,.43-.05,1.06-.55,1.74-1.07,1.83-1.6,1.91-2.27,3.32-.46,1.38-3.48,4.56-4.19,5.19-.71,.63-2.99,1.77-7.2,2.42-.21,.03-.42,.07-.63,.1-4.64,.54-5.84,.02-7.34-.18-1.4-.4-3.91-1.67-5.28-3.65-1.37-1.89-2.18-3.25-2.32-5.94-.12-2.34,.19-4.66,.06-7.17-.02-.43-.04-.87-.07-1.3-.47-2.99-.64-4.27-.89-6.94-.04-.78-.08-1.56-.12-2.34-.01-.26,.39-2.77-.14-2.69-.42,.06-1.56,.59-2.83,.78-.32,.05-1.06,.07-1.48,.14-1.38-.05-1.83-.51-1.89-1.72-.06-1.13,.96-1.98,2.73-2.6,1.67-.51,2.41-.63,2.88-1.75,.48-.95,1.6-1.9,1.43-5.2-.09-1.73,.04-3.41,1.55-5.04Zm6.85,7.25c-.08-1.65-.12-2.25-.06-3.14-.03-.52,.05-1.06,.03-1.4-.08-1.56-.44-2.47-1.18-2.35-.74,.11-1.96,1.17-3.48,2.63-.72,.55-.96,1.98-.89,3.28,.08,1.56,.59,3.14,.61,3.58-.07,.62,.03,2.7,.14,4.78,.24,1.83,.47,3.66,.71,5.48,.16,3.12-.45,3.56-.33,5.91,.12,2.25,.34,2.57,.56,4.72,.2,1.8,.56,2.71,.62,3.84,.18,3.55,2.1,5.79,5.92,7.83,.21,.06,.54,.09,.75,.06,.42-.06,.51-.43,.49-.86-.01-.26-.13-.5-.25-.66-.46-.63-1.06-2.02-1.69-3.93-.38-1.25-.44-2.29-.49-3.42-.03-.58-.06-1.16-.09-1.73-.1-1.91-.97-4.48-1.07-6.3-.09-1.82,.39-2.77,.25-5.54-.22-4.25-.83-7.91-.7-11.51,.19-.38,.17-.73,.15-1.25Z"/><path d="M252.51,52.4c.09,1.82,.19,3.64,.28,5.45-8.37,1.3-16.74,2.6-25.11,3.9-.09-1.82-.19-3.64-.28-5.45,8.37-1.3,16.74-2.6,25.11-3.9Z"/><path d="M273.13,39.26c2.32-.35,5.39-.47,7.39-.78,.42-.06,.94-.23,1.89-.37,2.42-.37,5.43,.4,7.49,1.14,2.38,.87,4.38,2.66,5.74,4.3,1.45,1.44,2.22,4.04,2.33,6.12,.11,2.08,.32,2.14,.68,4.97,.17,3.38-.58,5.15-1.15,6.55-.66,1.58-1.31,3.43-3.09,5.88-1.99,2.65-4.37,3.8-6.34,4.62-2.09,.75-5.49,2.75-7.57,3.42-1.36,.38-3.04,.81-4.51,1.04-1.05,.16-1.9,.2-2.75,.16-2.13-.2-3.42-.52-7.07-1.19-3.64-.58-5.13-2.79-6.48-4.16-1.44-1.26-3.79-3.52-3.89-5.43-.61-1.57-1.45-3.45-1.54-5.18,0-2.1,.96-4.08,1.4-5.9,.33-1.8,2.24-4.02,3.15-4.77,.92-.58,1.17-1.93,2.06-3.29,.89-1.36,3.28-2.34,5.1-4.11,1.93-1.78,2.89-1.58,5.18-2.54,.63-.18,1.25-.37,1.99-.48Zm-9.97,8.43c-1.01,.94-1.12,.96-2.69,3.47-1.46,2.5-2.44,4.22-2.56,6.07-.06,.88,.18,1.37,.2,1.89,.03,.61-.54,1.92-.18,2.74,.51,1.67,1.07,4.38,1.84,4.87,.67,.68,2.63,3.7,4.15,4.34,1.41,.66,5.95,2.14,7,1.98,.32-.05-.26-.92-.27-1.09,0-.09-.99-.63-1.22-1.12-.73,.2-2.74,.33-3.18,.14-.43-.11-.47-.89,.14-1.33,.2-.21,1.68-.43,2.09-.59-.27-.37-.53-.73-.8-1.1-.63,.1-3.58,.64-3.89,.69-.53,.08-.68-.77-.58-1.05,0-.17,2.72-.77,3.45-.97-.34-.39-.47-.8-.7-1.2-.98,.15-1.97,.3-2.95,.45-.95,.15-1.31-.67-1.32-.93,0-.17,3.04-.82,3.87-1.12-.24-.49-.58-.96-.82-1.53-.74,.03-3.59,.47-3.9,.6-.41,.24-.47-.98-.6-1.39-.13-.42,.82-.56,1.44-.92,.21-.03,2.63-.49,2.95-.54-.03-.52-.05-1.04-.08-1.56-.91,.14-1.83,.28-2.74,.42-.42,.15-1.79,.28-2,.31-.21,.03-.37-.99,.03-1.49,.29-.48,3.67-.92,4.73-.91,.11-.69,.21-1.37,.32-2.06-.21,.12-2.52,.48-2.73,.51-.63,.18-1.57,.42-2.01,.22-.54-.18,.35-1.54,.76-1.69,.32-.05,3.57-.73,4.62-.89,.07-.71,.05-1.14,.33-1.8-.42,.15-2.84,.52-3.05,.56-.74,.11-.25-.66-.37-.99-.12-.24,1.33-.99,1.96-1.18,.32-.05,2-.4,2.73-.51,.4-.58,.79-1.17,1.29-1.77-.32-.04-1.69,.09-1.92-.14-.44-.37,.16-1.07,.57-1.22,1.01-.27,2.02-.54,3.04-.82,.4-.5,2.61-3.02,2.6-3.19-.21,.03-2.4,.89-2.71,.94-.21,.03-3.93,2.09-4.33,2.41-1.22,.97-1.52,1.46-2.53,2.49Zm3.57-23.53c.32-.05,.74-.11,1.06-.07,1.6,.1,3.24,1.07,5.01,2.55,.88,.56,1.23,1.3,1.27,1.99,.04,.87-.32,1.97-1.12,3.05-1.06,2.08-3.69,2.57-4.99,4.09-.6,.7-1.65,1.04-2.91,1.23-1.26,.19-2.34,0-3.1-.31-.79-.84-2.17-3.07-2.24-4.37-.06-1.21,2.09-4.87,3.29-6.19,.79-1.08,2.25-1.74,3.72-1.97Zm4.1,5.31c-.41,.24-.63,.18-1.26,.19-.53,0-2.52,.56-3.15,.66-.63,.1-.68-.77-.8-1.1-.12-.24,.71-.72,1.33-.9,.73-.2,2.1-.41,3.16-.57-.78-.67-1.97-1.1-3.65-.84-3.27,.5-3.65,3.36-3.59,4.48,.07,1.3,.89,2.92,1.54,3.08,0,0,.32,.13,.64,.08,.84-.13,2.61-.92,3.32-1.56-.63,.18-2.42,.55-2.85,.35-.54-.18,.35-1.54,.76-1.69,.42-.15,2.7-1.11,3.79-.67,.26-.51,.51-1.01,.77-1.52Zm-1.87-5.48c1.16-.18,3.77-1.1,6.91,2.18,.77,.58,1.13,1.31,1.17,2.01,.04,.87-.33,1.88-1.01,3.04-1.28,2.03-3.05,2.56-4.46,4.09-1.11,1.22-3.71,2.14-5.1,1.92,1.16-.18,1.97-.91,2.57-1.62,1.3-1.51,3.93-2,4.99-4.09,.69-1.07,1.06-2.17,1.01-3.04-.04-.69-.39-1.42-1.17-2.01-1.77-1.39-3.31-2.38-4.91-2.48Zm1.02,26.05c-1.3,3.69-1.73,3.5-1.64,7.33,.08,1.65-.08,2.63-.03,3.5,.05,.95,.3,1.79,1.03,3.51,1.44,3.27,.76,4.51,2.52,5.56,1.65,1.14,3.88,1.15,6,1.09,1.58-.24,4.06-1.49,4.75-2.64,1-1.29,1.77-4.72,2.12-6.35,.35-1.45,.75-2.03,1.13-4.89,.13-1.51,.09-2.29,.05-3.07-.04-.69-.07-1.3-.22-2.24-.31-1.96,.18-2.74-1.54-5.27-1.61-2.46-.44-4.39-3.74-4.59-1.17-.08-2.02-.04-2.86,.09-1.26,.19-1.99,.57-2.61,.92-2.32,2.36-3.36,2.79-4.95,7.05Zm2.92,19.73c-1.75-1.04-1.07-2.28-2.51-5.56-.73-1.72-.98-2.56-1.03-3.51-.04-.87,.12-1.85,.03-3.5-.09-3.83,.34-3.64,1.64-7.33,1.59-4.26,2.44-4.13,4.76-6.49,.62-.36,1.55-.76,2.82-.95-2.77,1.82-4,2.71-5.47,7.13-1.19,3.68-1.73,3.5-1.64,7.33,.08,1.65-.08,2.63-.03,3.5,.05,.95,.3,1.79,1.03,3.51,1.44,3.27,.76,4.51,2.52,5.56,1.65,1.15,1.85,.94,3.97,.88-1.04,.42-4.43,.59-6.08-.56Zm13.11-48.56c.32-.05,.74-.11,.95-.06,1.7,.09,3.24,1.08,5.12,2.55,.77,.58,1.13,1.32,1.17,2.01,.04,.87-.32,1.97-1.01,3.03-1.59,2.16-2.96,2.28-4.26,3.78-.6,.7-2.48,1.33-3.64,1.51-1.37,.21-2.34,0-3.1-.32-.89-.83-2.17-3.08-2.24-4.38-.06-1.21-.43-4.3,2.24-6.02,1.23-.8,3.19-1.88,4.77-2.12Zm-4.03,53.9c2.09-.67,5.01-1.72,6.99-2.45,1.97-.82,6.62-3.44,8.6-6.09,1.79-2.45,2.43-4.29,3.09-5.88,.57-1.39,1.32-3.17,1.15-6.55-.36-2.83-.57-2.89-.68-4.97-.11-2.08-.88-4.68-2.33-6.12-1.36-1.63-3.36-3.43-5.74-4.3-2.06-.74-4.96-1.44-7.38-1.16,2.33-.09,3.22,.74,5.27,1.3,2.48,.76,4.39,2.84,5.75,4.47,1.45,1.44,2.22,4.04,2.33,6.12,.11,2.08,.32,2.14,.68,4.97,.17,3.38-.58,5.15-1.15,6.55-.66,1.58-1.31,3.43-3.09,5.88-1.99,2.65-4.25,3.95-6.23,4.78-1.98,.73-5.17,2.7-7.25,3.45Zm8.02-48.56c-.31,.22-.52,.17-1.16,.17-.53,0-2.52,.55-3.15,.65-.74,.11-.78-.76-.91-1.09-.12-.24,.81-.73,1.44-.92,.73-.2,2.1-.4,3.16-.56-.78-.67-2.07-1.09-3.65-.85-3.37,.51-3.76,3.36-3.7,4.49,.15,2.86,1.78,3.66,3.47,3.41,.74-.11,2.28-1.13,2.88-1.74-.52,.17-3.27,.49-3.7,.3-.43-.2,.35-1.54,.76-1.69,.52-.17,2.81-1.12,3.89-.67,.22-.5,.44-1,.67-1.5Zm-2.85,16.85c.05,1.04,.79,3.03,.96,4.14,.13,.5,.15,.85,.17,1.28,.04,.69,.47,.98,.57,2.8,.14,2.69-.15,3.26-.02,5.77,.12,2.43-.17,5-1.11,7.24-1.51,3.64-2.54,4.31-2.51,4.92,0,.09,.11,.16,.33,.13,.53-.08,1.67-.51,2.5-.99,.42-.15,.82-.47,1.22-.97-.32,.05-.54-.09-.65-.17-.43-.11-.47-.89,.14-1.33,.41-.32,2.01-.21,2.74-.32,.44-.33,.89-.66,1.33-.99-2.12,.14-2.99-.34-2.52-1.46,.28-.74,2.09-.66,3.46-.87,.19-.38,.47-1.12,.45-1.64-.95,.14-3.06,.37-3.07,.11-.01-.26,.36-1.28,1.19-1.58,.84-.13,1.69-.25,2.53-.38,.22-.53,.44-1.06,.66-1.58-.85,.04-3.37,.5-3.79,.65-.41,.24-.47-.98-.6-1.39-.13-.42,2.41-.62,3.03-.98,.31-.13,.94-.23,1.58-.32-.05-.95-.17-1.29-.19-1.63-.21,.03-2.01,.21-4.11,.53-.21,.03-.37-.99,.03-1.49,.3-.39,3.03-.98,3.98-.94-.21-.58-.41-1.16-.62-1.74-.63,.18-3.46,.78-3.9,.58-.54-.18,.35-1.54,.76-1.69,.21-.03,2.73-.58,2.94-.61-.14-.62-.28-1.24-.41-1.86-.52,.16-2.41,.62-2.83,.68-.74,.11-.78-.76-.91-1.09-.12-.24,.81-.73,1.44-.91,.32-.05,1.16-.09,1.04-.33-.41-.43-.82-.87-1.23-1.3-.53,.08-1.77,.62-2.22,.24-.33-.21-.28-1.35-.41-1.77-.42,.06-1.97,.91-1.95,1.26Zm1.08-22.35c1.16-.17,3.19,.04,6.88,1.59,.98,.47,1.16,1.92,1.2,2.62,.04,.87-.3,2.49-.98,3.64-1.17,2.01-3.06,2.47-4.8,3.77-1.12,.87-3.41,1.82-4.91,1.61,1.26-.19,3.54-1.41,4.14-2.11,1.41-1.52,2.47-1.51,3.43-3.57,.79-1.08,1.16-2.18,1.12-3.05-.04-.69-.39-1.43-1.27-1.99-1.66-1.41-3.31-2.39-4.8-2.51Z"/><path d="M327.83,41.18c.09,1.82,.19,3.64,.28,5.46-8.37,1.16-16.74,2.36-25.11,3.59-.09-1.82-.19-3.64-.28-5.46,8.37-1.23,16.74-2.43,25.11-3.6Z"/><path d="M350.29,58.08c0-.09,0-.17-.01-.26-.18,.02-.35,.05-.53,.07,.14,.77-.25,1.43-.21,2.21,0,.09,0,.17,.01,.26,.32-.04,.63-.08,.95-.12-.14,.1-.27,.21-.41,.31-.1,.19-.08,.45-.07,.71-.21,.03-.42,.05-.63,.08-.01-.29-.03-.58-.04-.87-.11,.01-.21,.03-.32,.04,.06,.4,.11,.8,.17,1.2,.14-.02,.28-.04,.42-.05,.24,.58,.59,1.15,.62,1.84-.21,.03-.42,.05-.63,.08,.01,.26,.03,.52,.04,.78-.28,.04-.56,.07-.84,.11,0,.14,.01,.29,.02,.43-.53,.07-1.05,.14-1.58,.21,0,.06,0,.12,0,.17-.1,.1-.2,.2-.3,.3-.64-.09-1.16,.07-1.8-.02-.1,.1-.21,.11-.31,.13-.32,.04-.53-.02-.74,.01-.95,.13-1.86,.94-2.91,1.09-.42,.06-.74,.01-1.06-.03,0-.09,0-.17-.01-.26-.11-.07-.22-.15-.32-.13-.11,.01-.09,.36-.29,.48-.14,.02-.28,.04-.42,.06,0-.09,0-.17-.01-.26-.44-.2-.53-.02-.95,.04-.21,.03-.32-.04-.54-.1-1.59,.04-.68-.87-2.18-1.1-.01-.26-.24-.49-.25-.75,0,0,0-.09,.1-.1-.13-.42,.63-.17,.49-.77-.14,.02-.28,.04-.42,.06-.12-.25-.24-.49-.25-.75-.02-.43,.15-1.16,.56-1.56,.1-.07,.2-.14,.31-.22-.43-.2-.43-.12-.86-.23,.03-.09,.06-.18,.09-.27,.04,0,.07,0,.11-.01,.11-.01,.31-.13,.31-.22,0-.09-.42,.06-.53,.07-.02-.43-.25-.75-.27-1.1,.21-.03,.42-.06,.63-.09-.11-.1-.22-.2-.33-.3-.07,0-.14,.02-.21,.03,0-.09-.11-.16-.12-.25,0-.09,.52-.25,.62-.26-.02-.43-.66-.43-.68-.78,0-.09-.01-.26,.09-.36,.14-.02,.28-.04,.42-.06-.04-.81-.08-1.62-.12-2.43,.21-.03,.42-.06,.63-.09-.12-.25-.35-.56-.77-.59,0-.12-.01-.23-.02-.35,.11-.01,.21-.03,.32-.04,.1-.1,.2-.29,.19-.38-.04-.05-.08-.11-.11-.16-.03,0-.07,0-.1,.01,0-.17,.51-.33,.61-.43-.11-.07-.22-.14-.33-.22-.21,.03-.42,.06-.63,.09,.3-.39,.93-.56,1.56-.65-.02-.43-.15-.85-.58-1.06-.28,.04-.56,.08-.84,.11,.1-.19,.19-.38,.18-.55-.01-.26-.46-.72-.58-1.06,.21-.03,.42-.06,.63-.09-.22-.23-.03-.61-.46-.72,.39-.58,1.13-.76,1.76-.85,0-.09,0-.17-.01-.26-.75-.07-.65-.17-1.49-.06-.13-.42-.36-.91-.7-1.22,.62-.26,.62-.35,1.36-.45,0-.12-.01-.23-.02-.35-.42,.06-.74,.01-1.16,.07-.04-.87,.57-1.39,1.72-1.72-.04-.02-.07-.05-.11-.07-.11-.07-.22-.14-.33-.13,0-.09-.11-.16-.11-.16-.21,.03-.42,.06-.63,.09-.02-.38-.04-.75-.06-1.13-.11,.01-.21,.03-.32,.04-.13-.42,.06-.88,.69-1.05-.05-.2-.09-.4-.14-.59-.25,.03-.49,.07-.74,.1,0-.09,0-.17-.01-.26,.11-.01,.2-.2,.31-.22-.07-.08-.15-.15-.22-.23-.14,0-.28-.02-.43-.03,.04-.59,.08-1.18,.12-1.76,.11-.01,.21-.03,.32-.04,.1-.01,.21-.12,.2-.2,0-.17-.44-.38-.56-.54,.11-.01,.21-.03,.32-.04,.19-.38,.49-.77,.47-1.11-.03-.52-.16-1.11-.19-1.63,.21-.03,.42-.06,.63-.09-.29-.86-.58-1.73-.88-2.59-.18,.02-.35,.05-.53,.07-.01-.26-.03-.52-.04-.78-.11,.01-.21,.03-.32,.04,0,0-.11,.01-.11-.07,0,0,.43,.03,.42-.14,0-.06,0-.12,0-.17-.11,.01-.21,.03-.32,.04,0-.09,0-.17-.01-.26-.05-.96,.77-1.59,.72-2.55-.04-.78-.14-.59-.68-.87,0-.09,.31-.13,.31-.22-.01-.26,1.77-.68,2.08-.72-.11-.07-.22-.15-.33-.13-.21,.03-.41,.23-.62,.26-.21,.03-.64-.09-.65-.26,0-.09-.22-.14-.33-.13-.02-.35-.04-.69-.05-1.04-.21,.03-.42,.06-.63,.09,0-.17-.02-.35-.03-.52,.14-.02,.28-.04,.42-.06,.03-.03,.07-.07,.1-.1-.01-.26-.64,0-.65-.17,0,0,0-.09,.1-.1,.14-.02,.28-.04,.42-.06,.19-.46,.16-1.07,.03-1.49,.18-.02,.35-.05,.53-.07-.58-.88-.97-.22-1.24-1.4-.11,.01-.21,.03-.32,.04,.31-.13,.38-.84,.37-1.01-.01-.26-.03-.52-.25-.67-.11,.01-.21,.03-.32,.04-.01-.2-.02-.4-.03-.61,.11-.01,.21-.03,.32-.04-.07-.66-.14-1.32-.21-1.98,.19-.37,.21-.12,.42-.14,.11-.01,.09-.27,.09-.36-.18,.02-.35,.05-.53,.07-.11-.07-.11-.16-.12-.33-.03-.52,.71-.62,.68-1.14-.05-.96-1.09-.64-1.14-1.5,.28-.04,.56-.08,.84-.12-.32-.04-.54-.1-.85-.06,0,0,.1-.19,.09-.28,.04,.02,.07,.05,.11,.07,.03-.06,.06-.13,.1-.19-.02-.41-.04-.81-.06-1.22,.14-.02,.28-.04,.42-.06,0-.06,0-.12,0-.17-.01-.26-.23-.41-.56-.54,.18-.02,.35-.05,.53-.07,0-.06,0-.11,0-.17-.03-.61-.79-.94-.82-1.55,0-.17,.09-.36,.18-.55,.14-.02,.28-.04,.42-.06,.1-.1,.2-.2,.19-.38-.01-.26-.66-.43-.78-.68,.2-.2,.41-.32,.61-.43-.11-.07-.22-.23-.23-.32-.11,.01-.32,.04-.43-.03-.02-.35-.04-.69-.05-1.04,.62-.26,1.25-.52,1.98-.71,0,.06,0,.12,0,.17,.14-.02,.28-.04,.42-.06,0-.06,0-.12,0-.17,1.58-.22,3.16-.43,4.74-.64,0,.06,0,.12,0,.17,.11-.01,.11,.07,.22,.06,.1-.01,.09-.27,.09-.27,.63-.17,.32-.04,.33,.22,.11-.01,.21-.12,.21-.12,.04,0,.07,0,.11-.01,0-.06,0-.12,0-.17,.21-.12,.41-.23,.62-.26,.63-.09,.87,.32,1.29,.27q.11-.01,.21-.12c0-.06,0-.12,0-.17,.31-.22,.72-.36,1.15-.42,1.05-.14,2.13,.24,3.09,.29,0,.09,0,.17,.01,.26-.14,.02-.28,.04-.42,.06,.04,.78-.03,1.58,.01,2.36,.05,.87,.8,1.21,.83,1.81,0,.06,0,.12,0,.17-.18,.02-.35,.05-.53,.07,.13,1.15,.26,2.3,.39,3.44-.1,.19-.19,.37-.18,.55,.01,.26,.35,.57,.37,.91,0,.09-.1,.19-.09,.27-.04,0-.07,0-.11,.01,0,.09,0,.17,.01,.26,.04,0,.07,0,.11-.01,.04,.69-.04,1.31,0,2.01,.02,.43,.25,.84,.28,1.36,0,.09-.09,.36-.08,.45-.18,.02-.35,.05-.53,.07,0,.06,0,.12,0,.17,.02,.35,.76,.42,.79,.86,0,.09-.09,.27-.19,.38-.14,.02-.28,.04-.42,.06-.1,.1-.1,.19-.09,.36,.07,.02,.14,.04,.21,.06,.32-.04,.43,.12,.44,.29-.18,.02-.35,.05-.53,.07,0,.17,.02,.35,.03,.52,.18,.06,.36,.13,.54,.19-.17,.05-.35,.1-.52,.16,.01,.26-.08,.45-.07,.71,0,.17,.23,.32,.24,.49,.01,.26-.39,.58-.6,.78,.11,.16,.12,.33,.23,.41,.31-.13,.63-.17,.94-.21-.2,.2-.31,.13-.52,.24,.01,.2,.02,.4,.03,.61-.14,.02-.28,.04-.42,.06,.02,.43,.68,.78,.71,1.39,0,.17,.02,.35-.08,.53-.14,.02-.28,.04-.42,.06,.02,.43,.66,.44,.67,.61-.2,.2-.41,.32-.61,.43,.11,.16,.33,.13,.54,.19-.2,.29-.51,.42-.6,.69,.03,.52,.05,1.04,.08,1.56-.11,.01-.21,.03-.32,.04,0,.09,0,.17,.01,.26,.11,.07,.33,.13,.33,.22,0,0-.1,.19,.01,.26l-.2,.2c0,.12,.01,.23,.02,.35,.11-.01,.21-.03,.32-.04,0,.06,0,.12,0,.17,0,.09-.11,.01-.21,.03-.03,.03-.07,.07-.1,.1,0,.14,.01,.29,.02,.43,.32,.1,.65,.21,.97,.31-.1,.1-.42,.14-.63,.17,.08,.16,.16,.33,.24,.49-.06,.18-.12,.36-.18,.55-.25,.03-.49,.06-.74,.1,0,.14,.01,.29,.02,.43,.28-.04,.56-.07,.84-.11,.02,.32,.03,.64,.05,.96,.1-.19,.09-.36,.08-.53,.18-.02,.35-.05,.53-.07-.09,.27-.29,.56-.6,.78,.08,.16,.16,.33,.24,.49,.11,.16,.33,.22,.44,.29-.1,.1-.2,.2-.2,.29-.14,.02-.28,.04-.42,.06,.25,.84,.19,1.72,.24,2.59,.01,.23,.02,.46,.04,.69,.21-.03,.42-.06,.63-.08,.05,.2,.09,.4,.14,.59-.21,.03-.42,.05-.63,.08,.11,.16,.12,.33,.13,.51,.18-.02,.35-.05,.53-.07,.11,.07,.12,.25,.13,.42,.02,.43-.49,.76-.47,1.2,.14-.02,.28-.04,.42-.05-.1,.19-.3,.39-.61,.52,.12,.25,.47,.9,.79,1.03-.11,.01-.1,.19-.09,.27-.11,.01-.31,.13-.41,.23,.18,.09,.36,.19,.54,.28-.03,.06-.06,.12-.1,.19-.1,.01-.31,.13-.31,.13,.04,.78-.1,2.11,1.07,2.31,0,.14,.01,.29,.02,.43-.14,.02-.28,.04-.42,.05,.07,.75,.15,1.5,.22,2.24-.18,.02-.35,.05-.53,.07,0,.17,.02,.35,.03,.52,.32-.04,.74-.1,.94-.3,.07,0,.14-.02,.21-.03,.01,.29,.03,.58,.04,.87-.21,.03-.42,.05-.63,.08,0,.12,.01,.23,.02,.35,.21-.03,.42-.05,.63-.08,.02,.43,.05,.95-.46,1.28,.15,.15,.3,.31,.45,.46,.05,.34,.11,.69,.16,1.03-.42,.05-.84,.11-1.15,.24,.01,.2,.02,.41,.03,.61,.39-.05,.77-.1,1.16-.15,.03,.52-.16,.89-.9,1.08,.05,.37,.11,.74,.16,1.12,0-.09,.21-.11,.31-.13,.03-.06,.06-.13,.1-.19,.14-.02,.28-.04,.42-.05,.07,.08,.15,.16,.22,.23,0,.12,.01,.23,.02,.35-.03,.03-.07,.07-.1,.1,0-.03,0-.06,0-.09-.11,.01-.31,.13-.41,.23,0,.09,0,.17-.09,.27,.21-.03,.42-.05,.63-.08,0,.17,.02,.35,.03,.52-.04,0-.07,0-.11,.01Zm-16.86-28.94c0-.12-.01-.23-.02-.35,.11-.01,.21-.03,.32-.04,0,.12,.01,.23,.02,.35-.11,.01-.21,.03-.32,.04Zm1.72,10.69c-.14,.02-.28,.04-.42,.06,0,.12,.01,.23,.02,.35,.14-.02,.28-.04,.42-.06,0-.12-.01-.23-.02-.35Zm.75,14.58c-.11,.01-.21,.03-.32,.04,0,.12,.01,.23,.02,.35,.11-.01,.21-.03,.32-.04,0-.12-.01-.23-.02-.35Zm.28-19.35c-.11,.01-.32,.04-.42-.03,0,.14,.01,.29,.02,.43,.21-.03,.42-.06,.63-.09-.08-.11-.15-.21-.23-.32Zm-.23,14.18c0,.12,.01,.23,.02,.35,.07,0,.14-.02,.21-.03-.08-.11-.15-.21-.23-.32Zm1.11-11.51c-.32,.04-.63,.09-.95,.13,0,.09,0,.17,.01,.26,.32-.04,.63-.09,.95-.13,0-.09,0-.17-.01-.26Zm.1-6.39c-.18,.02-.35,.05-.53,.07,.04,.14,.09,.28,.13,.42,.14-.02,.28-.04,.42-.06,0-.14-.01-.29-.02-.43Zm-.01,14.24c-.11-.07-.22-.06-.43-.03,.04,.14,.09,.28,.13,.42,.14-.02,.28-.04,.42-.06,0-.09-.12-.25-.12-.33Zm.14,.59c-.14,.02-.28,.04-.42,.06,.15,.07,.29,.14,.44,.2,0-.09,0-.17-.01-.26Zm.47,5.09c-.18,.02-.35,.05-.53,.07,0,.17,.01,.26-.09,.36,.21,.06,.43,.12,.54,.1,.04,0,.07,0,.11-.01,0-.17-.02-.35-.03-.52Zm-.17-1.2c-.14,.02-.28,.04-.42,.06,.11,.07,.33,.13,.54,.1-.04-.05-.08-.11-.11-.16Zm-.07-17.9c-.11,.01-.21,.03-.32,.04,0,.12,.01,.23,.02,.35,.11-.01,.21-.03,.32-.04,0-.12-.01-.23-.02-.35Zm.57,23.43c-.14,.02-.28,.04-.42,.06,0,.03,0,.06,0,.09-.07,0-.14,.02-.21,.03,.11,.07,.22,.14,.33,.22,.11,.07,.21,.06,.32,.04,0-.14-.01-.29-.02-.43Zm-.39-11.74s-.07,0-.11,.01c0,.14,.01,.29,.02,.43,.07,0,.14-.02,.21-.03-.04-.11-.08-.22-.12-.33,.18-.02,.35-.05,.53-.07-.21-.06-.43-.03-.53-.02Zm.5,7.71c.18-.02,.35-.05,.53-.07,0,0-.11-.07-.11-.16-.14-.04-.29-.08-.43-.12,0,.12,.01,.23,.02,.35Zm.46-13.78c-.11,.01-.21,.03-.32,.04l.02,.35c.11-.01,.21-.03,.32-.04,0-.12-.01-.23-.02-.35Zm.41-.32c-.14,.02-.28,.04-.42,.06,0,.09,0,.17,.01,.26,.18-.02,.35-.05,.53-.07-.04-.08-.08-.16-.12-.25Zm.6,13.72c-.18-.03-.36-.07-.54-.1,0,.12,.01,.23,.02,.35,.21-.03,.42-.06,.63-.09-.04-.05-.08-.11-.11-.16Zm.11-10.32c-.11,.01-.21-.06-.32-.04,0,.12,.01,.23,.02,.35,.21-.03,.42-.06,.63-.08-.11-.07-.22-.15-.33-.22Zm-.24,1.6c0,.09,0,.17,.01,.26,.07,0,.14-.02,.21-.03-.07-.08-.15-.15-.22-.23Zm.96,.22c-.11,.01-.21,.03-.32,.04,0,.15,.01,.29,.02,.44,.11-.01,.21-.03,.32-.04,0-.15-.01-.29-.02-.44Zm.6,3.42c-.21,.03-.42,.06-.63,.08,0,.17,.02,.35,.03,.52,.21-.03,.42-.06,.63-.08,0-.17-.02-.35-.03-.52Zm-.53,8.28c.11,.07,.32,.04,.54,.1,.03,0,.07,0,.1-.01-.21-.03-.43-.06-.64-.09Zm.51-25.14c-.14,.02-.28,.04-.42,.06,0,.14,.01,.29,.02,.43,.14-.02,.28-.04,.42-.06,0-.14-.01-.29-.02-.43Zm.37,19.61s-.07,0-.11,.01c.21,.03,.43,.06,.64,.09,.07,0,.14-.02,.21-.03-.21-.06-.54-.1-.75-.08Zm2.21-6.59c-.3,.39-.3,.3-.71,.53,0,.12,.01,.23,.02,.35,.25-.03,.49-.07,.74-.1-.01-.26-.03-.52-.04-.78Zm1.3,14.94c-.74,.1-1.15,.41-1.88,.51,.12,.25,.45,.46,.57,.71,.21-.03,.42-.06,.63-.08,0,0,.1-.1,.1-.19-.04-.02-.07-.05-.11-.07-.07,0-.14,.02-.21,.03,.1-.1,.1-.19,.2-.2,0-.12-.01-.23-.02-.35,.07,.05,.15,.1,.22,.15l.11,.16c.14-.02,.28-.04,.42-.06-.01-.2-.02-.4-.03-.61Zm-1.45-3.48c-.11,.01-.21,.03-.32,.04,0,.09,0,.17,.01,.26,.11-.01,.21-.03,.32-.04,0-.09,0-.17-.01-.26Zm.32,2.14s0-.06,0-.09c-.14,.02-.28,.04-.42,.06,0,.09,0,.17,.01,.26,.21-.03,.42-.06,.63-.08-.11-.07-.11-.16-.22-.15Zm-.31-1.88c.04,.17,.09,.34,.13,.51,.11-.01,.21-.03,.32-.04-.11-.16-.23-.32-.45-.46Zm.07-13.03v.17s.08,0,.11-.01c-.11-.07-.11-.16-.11-.16Zm.47-1.11c-.14,.02-.28,.04-.42,.06,.11,.07,.32,.05,.43,.03,0-.03,0-.06,0-.09Zm.35,10.88c-.18,.02-.35,.05-.53,.07,.18,.03,.36,.07,.54,.1v-.17Zm-.05-4.89c-.14-.04-.29-.08-.43-.12,0,.14,.01,.29,.02,.43,.21-.03,.42-.06,.63-.08,0-.09-.22-.15-.22-.23Zm.07,5.41c-.14,.02-.28,.04-.42,.06,0,.12,.01,.23,.02,.35,.14-.02,.28-.04,.42-.06,0-.12-.01-.23-.02-.35Zm.12-12.16c-.18,.02-.35,.05-.53,.07,.01,.23,.02,.46,.04,.69,.18-.02,.35-.05,.53-.07-.01-.23-.02-.46-.04-.69Zm-.38,9.05c0,.12,.01,.23,.02,.35,.07,0,.14-.02,.21-.03-.08-.11-.15-.21-.23-.32Zm.22,12.64c-.07-.05-.15-.1-.22-.15,0,.14,.01,.29,.02,.43,.11-.01,.21-.03,.32-.04,0-.09-.11-.16-.12-.25Zm-.08-20.26s-.07,0-.11,.01c.21,.06,.54,.1,.75,.08,.07,0,.14-.02,.21-.03-.22-.15-.64-.09-.85-.06Zm.62,16.17c-.18,.02-.35,.05-.53,.07,0,.09,0,.17,.01,.26,.18-.02,.35-.05,.53-.07,0-.09,0-.17-.01-.26Zm-.52-18.37c0,.09,0,.17,.01,.26,.07,0,.14-.02,.21-.03-.07-.08-.15-.16-.22-.23Zm1.1-11.68c-.32,.04-.63,.08-.95,.13,0,.12,.01,.23,.02,.35,.32-.04,.63-.08,.95-.13,0-.12-.01-.23-.02-.35Zm-.27,15.41c-.14,.02-.28,.04-.42,.06,.01,.26,.03,.52,.04,.78,.14-.02,.28-.04,.42-.06-.01-.26-.03-.52-.04-.78Zm.12-3.86c-.14,.02-.28,.04-.42,.06,0,.09,0,.17,.01,.26,.14-.02,.28-.04,.42-.06,0-.09,0-.17-.01-.26Zm.64-6.11c-.1,.1-.31,.22-.41,.23,0,.09,0,.17,.01,.26-.18,.02-.35,.05-.53,.07,.22,.06,.53,.02,.85-.02,.04,0,.07,0,.11-.01,0-.17-.02-.35-.03-.52Zm-.83,14.87c0,.06,0,.12,0,.17,.07,0,.14-.02,.21-.03-.07-.05-.15-.1-.22-.15Zm.65-16.34c-.14,.02-.28,.04-.42,.06,0,.12,.01,.23,.02,.35,.18-.02,.35-.05,.53-.07-.04-.11-.08-.22-.12-.33Zm.15,7.14c-.21,.03-.32-.04-.43-.03,0,.14,.01,.29,.02,.43,.14-.02,.28-.04,.42-.06,0-.09-.11-.16-.02-.35Zm-.02,11.97c-.11,.01-.21,.03-.32,.04,.11,.04,.22,.09,.33,.13,0-.06,0-.12,0-.17Zm.02-14.16s-.07,0-.11,.01c.11,.16,.33,.13,.54,.11,.04,0,.07,0,.11-.01-.22-.06-.43-.12-.54-.1Zm.11,6.28c-.07,0-.14,.02-.21,.03,.21,.06,.53,.02,.85-.02,.03,0,.07,0,.1-.01-.22-.06-.53-.02-.74,.01Zm.23-5.8c-.14,.02-.28,.04-.42,.06,0,.09,0,.17,.01,.26,.14-.02,.28-.04,.42-.06,0-.09,0-.17-.01-.26Zm.05,13.36c-.14,.02-.28,.04-.42,.06,0,.09,0,.17,.01,.26,.14-.02,.28-.04,.42-.06,0-.09,0-.17-.01-.26Zm-.21-1.98c-.07,0-.14,.02-.21,.03,0,0,.11,.07,.22,.06,0-.03,0-.06,0-.09Zm.86-3.87c-.32,.04-.63,.08-.95,.12,.11,.07,.22,.15,.33,.22,.04,.11,.08,.22,.12,.33,.18-.02,.35-.05,.53-.07-.01-.2-.02-.4-.03-.61Zm-.38-11.57c-.18,.02-.35,.05-.53,.07,.04,.14,.08,.28,.13,.42,.14-.02,.28-.04,.42-.06,0-.14-.01-.29-.02-.43Zm-.45,26.36l.04,.87c.09-.36,.07-.62-.04-.87Zm.34-1.62c-.11,.01-.21,.03-.32,.04,.11,.07,.22,.15,.33,.22,0-.09,0-.17-.01-.26Zm-.21-10.2c.33,.22,.53,.02,.96,.14-.44-.29-.64-.09-.96-.14Zm.1,14.32c0,.12,.01,.23,.02,.35,.04,0,.07,0,.11-.01,0-.09-.01-.26-.12-.33Zm.08,1.56c0,.12,.01,.23,.02,.35l.21-.03c-.08-.11-.15-.21-.23-.32Zm0-35.04c0,.06,0,.12,0,.17,.07,0,.14-.02,.21-.03,0-.09-.11-.16-.22-.15Zm.6,30.24c-.18,.02-.35,.05-.53,.07,0,.12,.01,.23,.02,.35,.18-.02,.35-.05,.53-.07,0-.12-.01-.23-.02-.35Zm.1-6.3c-.18,.02-.35,.05-.53,.07,.01,.2,.02,.4,.03,.61,.18-.02,.35-.05,.53-.07-.01-.2-.02-.4-.03-.61Zm0,8.21c-.14,.02-.28,.04-.42,.06,0,.12,.01,.23,.02,.35,.14-.02,.28-.04,.42-.06,0-.12-.01-.23-.02-.35Zm.63-6.37c0,.12,.01,.23,.02,.35,.03-.03,.07-.07,.1-.1-.04-.08-.08-.16-.12-.25Zm.41-6.43c-.11,.01-.21,.03-.32,.04,0,.14,.01,.29,.02,.43,.11-.01,.21-.03,.32-.04,0-.14-.01-.29-.02-.43Zm16.65,12.48c-.01-.23-.02-.46-.04-.69-.31,.13-.51,.33-.72,.44,.12,.33,.13,.51,.46,.82-.14,.02-.28,.03-.42,.05,0,.12,.01,.23,.02,.35,.18-.02,.35-.04,.53-.06,.02,.41,.04,.81,.06,1.22,.11-.01,.21-.03,.32-.04-.09,.27-.4,.4-.72,.44,0,0,.12,.16,.12,.25,.04,0,.07,0,.11-.01,.07,.02,.14,.04,.21,.06,0,.12,.01,.23,.02,.35-.43-.21-.54-.2-1.07-.22,0,.14,.01,.29,.02,.43-.39,.05-.77,.1-1.16,.14,0-.14-.01-.29-.02-.43-1.46,.53-2.83,.7-4.41,.9-.01-.23-.02-.46-.04-.7-.14,.1-.27,.21-.41,.31-.21,.11-.42,.14-.63,.17,0-.17-.03-.61-.25-.67,0-.14-.01-.29-.02-.43-.28,.04-.56,.07-.84,.11-.02-.35,.19-.46,.28-.82,.21-.03,.42-.05,.63-.08,0-.12-.01-.23-.02-.35-.03,.06-.06,.12-.1,.19-.28,.04-.56,.07-.84,.11,.07-.07,.13-.13,.2-.2,.21-.03,.42-.05,.63-.08-.57-.71-.88-.67-1.04-1.62-.14,.02-.28,.04-.42,.05-.07-.05-.15-.1-.22-.15-.14-.04-.29-.08-.43-.12,.13-.13,.27-.27,.4-.4,.11-.01,.32,.05,.43,.03,0,.09,.22,.15,.22,.23,.41-.31,.41-.23,.83-.45,0-.09-.01-.26,.09-.36,0-.03,0-.06,0-.09-.32,.04-.63,.08-.95,.12-.02-.43-.16-1.03-.69-1.05-.05-.34-.11-.69-.16-1.03,.22,.06,.43,.12,.65,.18,0-.09,0-.17-.01-.26,.1-.1,.2-.2,.3-.3-.11,.01-.21,.03-.32,.04,0-.09,0-.17-.01-.26-.21,.03-.42,.05-.63,.08,0-.12-.01-.23-.02-.35-.14,.02-.28,.04-.42,.05,0-.03,0-.06,0-.09,.25-.03,.49-.06,.74-.09-.01-.29-.03-.58-.04-.87-.28,.04-.56,.07-.84,.11,.1-.1,.2-.2,.3-.3,.28-.04,.56-.07,.84-.11,0-.12-.01-.23-.02-.35-.39,.05-.77,.1-1.16,.15-.02-.35-.25-.75-.27-1.19-.11-.07-.12-.33-.13-.51-.02-.35,.28-.73,.26-1.17,0-.09-.11-.16-.12-.25-.11-.07-.42-.03-.64,0-.11-.07-.12-.25-.12-.33-.02-.35,.61-.51,.59-.86,0,0-.11,.01-.11-.07-.14,.02-.28,.04-.42,.05-.11-.07-.11-.16-.12-.25,.03-.03,.07-.07,.1-.1,.42-.05,.61-.43,.6-.69-.03-.52-1.62-.58-1.33-1.05q.1-.1,.1-.19c0-.09-.11-.16-.22-.23,0-.03,0-.06,0-.09,.35-.05,.7-.09,1.05-.14-.01-.29-.03-.58-.04-.87-.25,.03-.49,.06-.74,.09-.13-.51,.39-.75,.37-1.01,0-.09-.12-.25-.23-.32-.11,.01-.21,.03-.32,.04-.22-.23-.14-.59-.36-.83,.08-.45,.6-.78,.46-1.28,.21-.03,.42-.05,.63-.08,0-.12-.01-.23-.02-.35-.42,.05-.84,.11-1.26,.16,.1-.16,.2-.32,.29-.47,0-.15-.01-.29-.02-.44,.28-.04,.56-.07,.84-.11-.04-.11-.08-.22-.12-.33,.21-.03,.42-.05,.63-.08-.04-.78-.28-1.28-1.05-1.79-.18,.02-.35,.05-.53,.07,.07-.04,.14-.08,.21-.12,.03,0,.07,0,.1-.01,.1-.1,.09-.27,.09-.36-.02-.35-.44-.38-.46-.73,0-.03,0-.06,0-.09,.04,0,.07,0,.11-.01,.21-.11,.19-.37,.19-.46-.21,.08-.42,.17-.62,.25-.11,.01-.21,.03-.32,.04-.01-.26-.03-.52-.04-.78-.18,.02-.35,.05-.53,.07-.02-.41-.04-.81-.06-1.22,.07,.02,.14,.04,.21,.06,.07,.05,.15,.1,.22,.15,.1-.07,.2-.14,.31-.21,0-.14-.01-.29-.02-.43,.12,.19,.23,.38,.35,.57,.28-.12,.55-.25,.83-.37-.04-.17-.09-.34-.13-.51-.63,.08-1.26,.16-1.9,.24,0-.12-.01-.23-.02-.35-.04-.78-.08-1.48,.95-2.13-.01-.2-.02-.4-.03-.61-.21,.03-.42,.05-.63,.08-.05-.95,.16-.98,1.32-1.13,.07-.1,.13-.19,.2-.29-.15-.13-.3-.25-.44-.38-.31,.13-.63,.17-.84,.2,.4-.4,.39-.58,.48-1.02,.21-.03,.32,.05,.43,.03,.11-.01,.21-.11,.21-.11,.18-.02,.35-.04,.53-.07-.11-.07-.22-.15-.33-.22-.11,.01-.21,.03-.32,.04-.11-.07-.22-.23-.13-.42-.1,.1-.32,.04-.42,.05,.1-.1,.2-.2,.19-.37,.11,.07,.32-.04,.42-.05,0-.14-.01-.29-.02-.43-.07,0-.14,.02-.21,.03,0-.03,0-.06,0-.09-.25,.03-.49,.06-.74,.1-.25-.67-.8-1.12-.83-1.81,.32-.04,.63-.08,.95-.12-.07-.6-.13-1.21-.2-1.81-.11,.01-.21,.03-.32,.04-.1,.1-.2,.2-.2,.29-.11,.01-.21,.03-.32,.04-.07-.6-.13-1.21-.2-1.81,.21-.09,.42-.17,.62-.26,.11-.01,.21-.03,.32-.04-.03-.61-.58-.97-.82-1.47,.17-.81,.03-1.49,.21-2.21-.21,.03-.42,.05-.63,.08,.07-.62,.69-.96,1.43-1.15,0-.17-.13-.42-.14-.59-.28,.04-.56,.07-.84,.11,.18-.55,.27-.99,.24-1.52,0-.12-.01-.23-.02-.35-.21,.03-.42,.05-.63,.08-.13-.42-.56-.63-.58-1.06,0-.17-.01-.26,.08-.45,.11-.01,.21-.03,.32-.04-.01-.23-.02-.46-.04-.69,.21-.03,.43,.03,.64,.09-.12-.25-.24-.49-.36-.74-.21,.03-.42,.05-.63,.08-.05-.2-.09-.4-.14-.59,.1-.13,.2-.26,.3-.39-.11,.01-.21,.03-.32,.04,.1-.1,.1-.19,.09-.27,.21-.03,.42-.14,.52-.15,0-.09-.23-.32-.44-.29-.1,.01-.22-.06-.21-.06-.03-.49-.05-.98-.08-1.48,.11-.01,.21-.03,.32-.04,0-.09,.1-.19,.09-.27-.07-.02-.14-.04-.21-.06-.21,.03-.32-.05-.32-.13,0-.06,0-.12,0-.17,.2-.2,.52-.15,.51-.33,0-.09-.11-.16-.22-.23-.11,.01-.21,.03-.32,.04-.11-.16-.23-.41-.25-.67-.02-.35,.17-.72,.16-1.07-.01-.26-.24-.49-.56-.54,.28-.82,1-1.27,1.28-2,.52-.16,1.15-.32,1.78-.41,.21-.03,.53-.07,.75,.08,1.47-.19,.96,.05,2.14,.34,.09,1.73,.38,3.36,.58,5.08,.14-.02,.28-.04,.42-.05,.07,.69,.14,1.38,.21,2.07,.11-.01,.21-.03,.32-.04,.12,.25,.24,.49,.36,.74,.11,.16-.26,1.08-.24,1.43,.02,.35,.13,.51,.46,.81,.11-.01,.21-.03,.32-.04,.11,.07,.22,.15,.23,.32,0,.17-.4,.49-.5,.59,.11-.01,.21-.03,.32-.04-.09,.27-.4,.49-.6,.77,.02,.43,.4,1.7,.84,1.82,0,.14,.01,.29,.02,.43-.14,.02-.28,.04-.42,.05,.04,.02,.07,.05,.11,.07,.07,0,.14-.02,.21-.03,.32,.05,.36,.83,.37,1,.02,.35,.05,.95-.36,1.18,.01,.26,.03,.52,.04,.78,.07-.07,.13-.13,.2-.2,.03-.06,.06-.12,.1-.19,.14-.02,.28-.04,.42-.05,.07,.63,.14,1.27,.2,1.9-.14,.02-.28,.04-.42,.05,.01,.26,.03,.52,.04,.78,.21-.03,.42-.05,.63-.08,.02,.43,.04,.87,.07,1.3,.02,.35,.15,.77-.16,1.07-.07,0-.14,.02-.21,.03-.03,.06-.06,.13-.1,.19,.14-.02,.28-.04,.42-.05,.01,.26,.03,.52,.04,.78,.66,.44,.76,.34,.8,1.04-.39,.05-.77,.1-1.16,.15,0,.12,.01,.23,.02,.35,.42-.05,.84-.11,1.16-.06,.02,.38,.04,.75,.06,1.13,.18-.02,.35-.04,.53-.07,0,.09,0,.17,.01,.26,.02,.35-.39,.66-.36,1.27-.21,.03-.42,.05-.63,.08,.02,.38,.04,.75,.06,1.13,.35-.04,.7-.09,1.05-.13-.21,.11-.31,.13-.42,.14,.12,.25,.77,.6,.78,.78q0,.09-.1,.19c-.03,.06-.06,.12-.1,.19,.03,.61,.06,1.22,.3,1.8-.21,.03-.42,.05-.63,.08,.22,.06,.43,.12,.64,.1,.03,.52-.05,1.05-.03,1.58,.03,.7,.17,1.2,1.23,1.33,0,.09,.01,.26-.09,.36-.18,.02-.35,.04-.53,.07-.1,.19-.09,.27-.08,.45,.02,.35,.27,1.1,.69,1.14,.01,.2,.02,.41,.03,.61,.07,1.39,.46,2.74,.53,4.04,.32-.04,.63-.08,.95-.12-.2,.29-.51,.5-.92,.64,.43,.21,.44,.38,1.08,.48-.09,.27-.47,1.11-.46,1.37,.01,.26,.12,.33,.44,.3-.11,.01-.21,.03-.32,.04-.03,.06-.06,.12-.1,.19,.01,.26,.23,.41,.55,.37,0,.09,.01,.26-.08,.45-.11-.07-.21,.03-.32,.04,.22,.23,.78,.78,.79,.95,0,.17-.19,.37-.18,.63,.04,.7,.39,1.35,.43,2.13,.04,.69-.03,1.49-1.07,1.88,.04,.14,.09,.28,.13,.42,.52-.15,.93-.46,1.45-.61,.04,.14,.09,.28,.13,.42-.18,.02-.35,.04-.53,.06,0,.09-.1,.19-.09,.27,.01,.26,.34,.4,.66,.53-.81,.71,.37,1,.56,2.55-.28,.03-.56,.07-.84,.1,.24,.58,.79,.95,1.54,1.03,.01,.23,.02,.46,.04,.69-.21,.03-.42,.05-.63,.08Zm-15.3,3.59c-.11,.01-.21,.03-.32,.04,.01,.2,.02,.4,.03,.61,.11-.01,.21-.03,.32-.04-.01-.2-.02-.4-.03-.61Zm-.1-45.33c-.01-.23-.02-.46-.04-.69,.11-.01,.21-.03,.32-.04,.01,.23,.02,.46,.04,.69-.11,.01-.21,.03-.32,.04Zm1.23-2.87c0,.14,.01,.29,.02,.43,.07,0,.14-.02,.21-.03-.08-.14-.16-.27-.23-.41Zm1,11.23c-.18,.02-.35,.05-.53,.07,0,.12,.01,.23,.02,.35,.18-.02,.35-.05,.53-.07,0-.12-.01-.23-.02-.35Zm-.21-1.98c0,.14,.01,.29,.02,.43,.07,0,.14-.02,.21-.03-.11-.16-.12-.33-.23-.41Zm.82,24.27c-.21,.03-.42,.05-.63,.08,0-.12-.01-.23-.02-.35,.25-.03,.49-.06,.74-.09-.03,.12-.06,.24-.09,.36Zm-.55-14.78c.21,.06,.43,.21,.55,.37,.1-.1,.09-.27,.09-.36,0-.03,0-.06,0-.09-.21,.03-.42,.05-.63,.08Zm.08,7.77c0-.09,0-.17-.01-.26,.11-.01,.21-.03,.32-.04,0,.09,0,.17,.01,.26-.11,.01-.21,.03-.32,.04Zm.95-20.74c-.11,.01-.22-.06-.32-.05,0,.12,.01,.23,.02,.35,.11-.01,.21-.03,.32-.04,0-.09,0-.17-.01-.26Zm.07,36.51c-.11,.01-.21,.03-.32-.05,.21-.03,.42-.05,.63-.08-.1,.1-.21,.11-.31,.13Zm-.17-42.53c0,.14,.01,.29,.02,.43,.07,0,.14-.02,.21-.03-.08-.14-.16-.27-.23-.41Zm.17,24c0-.09-.11-.16-.12-.25,.01,.2,.02,.4,.03,.61,0-.09,.1-.19,.09-.27,0-.03,0-.06,0-.09Zm.61-15.02c-.07,.04-.14,.08-.21,.11-.07,.07-.13,.13-.2,.2l-.32,.04c.11,.16,.43,.12,.64,.09,.04,0,.07,0,.11-.01,0-.14-.01-.29-.02-.43Zm-.71,4.81c0,.12,.01,.23,.02,.35,.11-.01,.21-.03,.32-.04,0-.17-.12-.25-.33-.31Zm.08-12.94c.01,.2,.02,.4,.03,.61,.1-.1,.1-.19,.09-.36,0-.09-.11-.16-.12-.25Zm.95,12.28s-.07-.05-.11-.07c0,0-.11-.07-.11,.01-.07-.08-.15-.16-.22-.23-.1,.1-.2,.2-.31,.21,0,.09,0,.17,.01,.26,.32-.04,.53-.07,.73-.18Zm-.68-9.17c0,.14,.01,.29,.02,.43,.03-.03,.07-.07,.1-.1-.04-.11-.08-.22-.12-.33Zm.51,1.59c-.11,.01-.32-.05-.43-.03,.01,.2,.02,.4,.03,.61,.07,0,.14-.02,.21-.03,.07-.07,.13-.13,.2-.2,.07-.04,.14-.08,.21-.11,0-.09-.22-.15-.22-.23Zm-.07,8.92c.14-.02,.28-.04,.42-.05,0-.12-.01-.23-.02-.35-.18,.02-.35,.05-.53,.07,.04,.11,.08,.22,.12,.33-.11,.01-.21,.03-.32,.04,0,.09,0,.17,.01,.26,.11-.01,.21-.03,.32-.04,0-.09,0-.17-.01-.26Zm.07,5.58c-.11-.04-.22-.09-.33-.13,0,.12,.01,.23,.02,.35,.11-.01,.21-.03,.32-.04,0,0-.11-.07,0-.17Zm.11,8.29c-.14,.02-.28,.04-.42,.05,.01,.2,.02,.4,.03,.61,.14-.02,.28-.04,.42-.05-.01-.2-.02-.4-.03-.61Zm0-4.11c-.11,.01-.21,.03-.32,.04,.11,.02,.21,.03,.32,.05,0-.03,0-.06,0-.09Zm.15,2.95c-.07-.05-.15-.1-.22-.15,0,.14,.01,.29,.02,.43,.11-.01,.21-.03,.32-.04,0-.09-.12-.25-.12-.25Zm1.15-14.82c-.32,.04-.74,.09-1.07-.13-.2,.29-.07,.62-.06,.88,.31-.13,.72-.35,1.25-.51-.04-.08-.08-.16-.12-.25Zm-.5,6.7c-.21,.03-.42,.05-.63,.08,0,.17,.02,.35,.03,.52,.21-.03,.42-.05,.63-.08,0-.17-.02-.35-.03-.52Zm.09,12.05l-.32,.04c0-.09,0-.17-.01-.26-.1,.01-.2,.11-.21,.11,0,.17,.01,.26-.08,.45,.21-.03,.42-.05,.63-.08,0-.09,0-.17-.01-.26Zm.25-30.26c-.25,.03-.49,.06-.74,.09,0,.12,.01,.23,.02,.35,.25-.03,.49-.06,.74-.09,0-.12-.01-.23-.02-.35Zm-.07,21.33c-.21,.03-.42,.05-.63,.08,0,.14,.01,.29,.02,.43,.21-.03,.42-.05,.63-.08,0-.14-.01-.29-.02-.43Zm0,2.01c.01,.2,.02,.4,.03,.61,.1-.1,.2-.2,.2-.29,0-.09-.12-.25-.23-.32Zm.41,10c-.11,.01-.21,.03-.32,.04,.11,.04,.22,.09,.33,.13,0-.06,0-.12,0-.17Zm1.66-21.44c-.11-.07-.22-.15-.21-.06,0-.03,0-.06,0-.09-.04-.05-.08-.11-.11-.16-.52,.15-.72,.44-1.35,.52,0,.17,.02,.35,.03,.52,.84-.11,.93-.38,1.66-.65,0-.03,0-.06,0-.09Zm-1.58,33.31c0-.12-.01-.23-.02-.35,.11-.01,.21-.03,.32-.04,0,.12,.01,.23,.02,.35-.11,.01-.21,.03-.32,.04Zm.38-23.55c-.11,.01-.21,.03-.32,.04,0,.09,0,.17,.01,.26,.11-.01,.21-.03,.32-.04,0-.09,0-.17-.01-.26Zm.75-4.03c-.18,.02-.35,.04-.53,.07-.11,.01-.19,.37-.19,.37-.11,.01-.21,.03-.32,.04,.11,.16,.23,.32,.34,.48,.25-.03,.49-.06,.74-.09-.01-.29-.03-.58-.04-.87Zm-.42-12.27c-.18,.02-.35,.04-.53,.07,0,.17,.01,.26-.09,.36,.11,.07,.33,.13,.54,.11,.04,0,.07,0,.11-.01,0-.17-.02-.35-.03-.52Zm.11,24.97c-.21,.03-.42,.05-.63,.08,0,.17,.12,.33,.14,.59,.18-.02,.35-.04,.53-.07-.01-.2-.02-.4-.03-.61Zm-.45-8.85c.22,.15,.75,.08,1.06,.04-.22-.15-.75-.08-1.06-.04Zm.66,19.05c-.18,.02-.35,.04-.53,.07,0,.09,0,.17,.01,.26,.18-.02,.35-.04,.53-.07,0-.09,0-.17-.01-.26Zm0-3.93c-.1,.01-.32,.04-.32-.05,0,.12,.01,.23,.02,.35,.21-.03,.42-.05,.63-.08-.11-.07-.22-.15-.33-.22Zm.57-13.61c-.18-.09-.36-.19-.54-.28-.07,.07-.13,.13-.2,.2,0,.09,.01,.26-.09,.27,.28-.04,.56-.07,.84-.11,0-.03,0-.06,0-.09Zm.1-6.3c-.18,.02-.35,.04-.53,.07,0,.12,.01,.23,.02,.35,.18-.02,.35-.04,.53-.07,0-.12-.01-.23-.02-.35Zm.67,4.72c-.41,.23-.3,.3-.94,.38,0,.17,.02,.35,.03,.52,.31-.21,.62-.25,.94-.29-.01-.2-.02-.41-.03-.61Zm-.35-10.88c-.21-.06-.43-.03-.53-.02,0,.12,.01,.23,.02,.35,.21-.03,.42-.05,.63-.08-.11-.07-.11-.16-.12-.25Zm-.49,25.49c.04,.14,.08,.28,.13,.42,.11-.01,.21-.03,.32-.04-.11-.16-.23-.32-.44-.38Zm.44,8.59c-.14,.02-.28,.04-.42,.05,0,.12,.01,.23,.02,.35,.14-.02,.28-.04,.42-.05,0-.12-.01-.23-.02-.35Zm.83,1.82c-.11,.01-.21,.03-.32,.04,0-.12-.01-.23-.02-.35-.28,.04-.56,.07-.84,.11,.11,.16,.33,.31,.55,.37,.21-.03,.42-.05,.63-.08,0-.03,0-.06,0-.09Zm-.35-12.97c-.25,.03-.49,.06-.74,.09,0,.17,.02,.35,.03,.52,.25-.03,.49-.06,.74-.09,0-.17-.02-.35-.03-.52Zm.57,5c-.32,.04-.63,.08-.95,.12,0,.17-.09,.36-.29,.56,.11-.01,.11,.07,.11,.16,.22,.15,.33,.13,.64,.09,.21-.03,.42-.05,.63-.08-.05-.29-.1-.57-.15-.86Zm-.42-4.05c-.1,.01-.43-.03-.53-.02,0,.12,.01,.23,.02,.35,.21-.03,.42-.05,.63-.08,0-.09-.12-.25-.12-.25Zm-.07,11.02c-.14,.02-.28,.04-.42,.05,0,.12,.01,.23,.02,.35,.21-.11,.31-.21,.62-.25-.11,.01-.22-.06-.22-.15Zm.45-24.26c-.11,.01-.21,.03-.32,.04,.11,.04,.22,.09,.33,.13v-.17Zm.5,24.31c-.25,.03-.49,.06-.74,.09,0,.17,.02,.35,.03,.52,.07-.04,.14-.08,.21-.11,0,0,0-.17,.09-.27,.14-.02,.28-.04,.42-.05,0-.06,0-.12,0-.17Zm-.04-19.48c-.11,.01-.21,.03-.32,.04,0,.12,.01,.23,.02,.35,.11-.01,.21-.03,.32-.04,0-.12-.01-.23-.02-.35Zm.94,18.32c-.11,.01-.21,.03-.32,.04,0,.12,.01,.23,.02,.35l.32-.04c0-.12-.01-.23-.02-.35Zm7.71-27.42c-.11,.01-.21,.03-.32,.04,.11,.07,.22,.15,.33,.22,.01,.23,.02,.46,.04,.7-.11,.01-.21,.03-.32,.04-.2,.29-.18,.55-.17,.81,.03,.52,.26,1.02,.29,1.54,0,.17,.03,.52-.18,.63,.05,.95-.45,1.63-1.6,1.94,.03,.52,.25,.67,.37,1.09,.21-.03,.42-.05,.63-.08-.1,.19-.2,.29-.19,.46,.02,.43,.37,.92,.39,1.35-.42,.05-.84,.1-1.26,.15,0-.17-.13-.51-.35-.57,0-.03,0-.06,0-.09,.11,.02,.21,.03,.32,.05,.11,.1,.22,.21,.33,.31,.11-.01,.21-.03,.32-.04-.01-.26-.03-.52-.04-.78-.11,.01-.21,.03-.32,.04-.04-.14-.09-.28-.13-.42,.11-.01,.21-.03,.32-.04-.11-.07-.42,.05-.64,0-.03-.61-.58-.89-.58-1.06,.07-.1,.13-.19,.2-.29,.11-.01,.21-.03,.32-.04-.01-.26-.03-.52-.04-.78,.21-.11,.42-.14,.63-.17,0-.12-.01-.23-.02-.35-.1,.1-.32,.04-.42,.05,0-.12-.01-.23-.02-.35,.5,.06,1,.11,1.49,.17,0-.17-.02-.35-.03-.52-.39,.05-.77,.09-1.16,.14,.2-.29,.39-.57,.49-.85-.84,.1-.75-.08-1.49-.08-.12-.33-.46-.64-.58-1.06,.39-.05,.77-.09,1.16-.14-.04-.14-.09-.28-.13-.42-.21,.03-.42,.05-.63,.08-.02-.35-.04-.69-.05-1.04-.21,.03-.42,.05-.63,.08,0-.17-.02-.35-.03-.52,.21-.03,.42-.05,.63-.08-.01-.29-.03-.58-.04-.87,.32-.04,1.25-.41,1.56-.63,.14-.02,.28-.03,.42-.05-.02-.43-.04-.87-.07-1.3-.18,.02-.35,.04-.53,.06,.02,.35,.04,.69,.05,1.04-.21,.03-.42,.05-.63,.08,.04,.08,.08,.16,.12,.25-.11,.01-.21,.03-.32,.04,0-.06,0-.12,0-.17-.21,.03-.43-.04-.74,0,0-.14-.01-.29-.02-.43,.42-.14,.62-.34,.93-.55,0-.06,0-.12,0-.17-.67,.08-1.33,.16-2,.25-.11-.16-.23-.32-.13-.42-.1,.01-.21-.06-.32-.05,0-.12-.01-.23-.02-.35,.32-.04,.63-.08,.95-.12,.09-.36,.39-.66,.48-1.02-.39-.04-.78-.08-1.17-.12,.19-.46,.39-.75,.57-1.29-.07,0-.14,.02-.21,.03,0-.03,0-.06,0-.09-.25,.03-.49,.06-.74,.09-.05-.29-.1-.57-.15-.86,.3-.3,.2-.2,.52-.24,.11-.01,.17-.81,.17-.89-.25,.03-.49,.06-.74,.09,.1-.1,.19-.37,.4-.4,.74-.09,.18-.55,.49-.76-.19-1.64-.76-.34-1.14-1.6-.21,.03-.42,.14-.62,.25-.02-.32-.03-.64-.05-.95,.31-.13,.61-.43,.6-.69,0-.17-.23-.32-.44-.38-.11-.16-.23-.32-.34-.48,.21-.03,.42-.05,.63-.08-.02-.38-.04-.75-.06-1.13-.21,.03-.42,.05-.63,.08,.03-.06,.06-.12,.1-.19,.11-.01,0,.09,.11,.07,.1-.01,.31-.21,.41-.31-.21-.06-.22-.23-.33-.31,.21-.03,.42-.05,.63-.08-.35-.57-.46-.64-.49-1.25-.35,.04-.7,.09-1.05,.13-.01-.2-.02-.41-.03-.61,.25-.03,.49-.06,.74-.09,0-.14-.01-.29-.02-.43-.63,.08-.83,.28-1.35,.52-.05-.26-.1-.51-.15-.77,.39-.05,.77-.1,1.16-.14-.05-.37-.11-.74-.16-1.12-.14,.02-.28,.03-.42,.05,0-.06,0-.11,0-.17-.03-.52,.5-.5,.49-.85,0-.09-.01-.26-.13-.42-.18,.02-.35,.04-.53,.07,0-.17-.12-.33-.13-.51,.2-.2,.4-.4,.61-.6,.21-.03,.42-.05,.63-.08-.04-.14-.08-.28-.13-.42-.17,.08-.35,.16-.52,.24,0-.17-.02-.35,.18-.55,.1-.1,.2-.2,.3-.3-.24-.49-.16-1.03-.4-1.52,.12,.19,.23,.38,.35,.57,.2-.2,.52-.24,.72-.35,0-.17-.12-.25-.33-.31,0-.09,.31-.21,.31-.21,0-.17-.13-.42-.24-.58-.22-.06-.43-.12-.64-.1-.15-.77-.19-1.55-.44-2.3,.21-.03,.42-.05,.63-.08,0,.17,.02,.35,.03,.52,.14-.02,.28-.03,.42-.05,0-.17-.02-.35,.08-.53-.11-.16-.44-.21-.54-.28,0,0,.21-.11,.2-.2,.1-.07,.21-.14,.31-.21,.05,.23,.09,.45,.14,.68,.14-.02,.28-.04,.42-.05-.04-.78-.48-1.08-.73-1.83,.27-.3,.54-.59,.8-.89,.21-.03,.42-.05,.63-.08,0-.09,0-.17-.01-.26,.14-.02,.28-.03,.42-.05,1.15-.23,2.34,.24,2.39,1.19,.04,.69-.57,1.38-.53,2.07,.01,.26,.24,.58,.67,.62,0,.12,.01,.23,.02,.35-.11,.01-.53,.06-.52,.15,0,.03,0,.06,0,.09,.11-.01,.54,.11,.54,.2,0,.09-.41,.31-.51,.5,.13,.42,.77,.52,.79,.95,0,.17-.09,.27-.19,.46-.14,.02-.28,.03-.42,.05,.02,.43,.04,.87,.07,1.3-.32,.04-.63,.08-.95,.12,0,.09,0,.17,.01,.26,.32-.04,.63-.08,.95-.12-.1,.1-.31,.21-.62,.25,.05,.2,.09,.4,.14,.59,.21-.03,.42-.05,.63-.08l-.2,.2s-.07,0-.1,.01c-.11,.01-.1,.1-.1,.1,.04,.69,.7,1.22,.73,1.92,0,.17-.09,.36-.08,.53-.11,.01-.21,.03-.32,.04-.1,.19-.09,.27-.08,.45,.04,.69,.69,1.05,.73,1.75,.01,.26-.08,.45-.07,.62-.08,.45-.52,.24-.5,.5,0,.09,.12,.25,.22,.23,.11-.01,.21-.03,.32-.04,0,.17,.12,.25,.13,.42,.02,.43-.51,.5-.5,.67,.11,.16,.23,.32,.44,.38,0,.17,.02,.43,.14,.6,0,.17-.2,.29-.3,.39-.11,.01-.2,.29-.3,.3-.15-.13-.3-.25-.44-.38-.14,.02-.28,.03-.42,.05,.12,.33,.34,.48,.57,.72,.21-.03,.42-.05,.63-.08,.01,.26,.04,.69,.37,.92-.4,.4-.37,1.01-.46,1.45,.18-.02,.35-.04,.53-.06,.13,.42-.28,.82-.26,1.17,0,0,0,.09,.11,.07,.11-.01,.21-.03,.32-.04,.07,.63,.14,1.27,.2,1.9-.11,.01-.21,.03-.32,.04-.19,.46-.06,.88-.25,1.34,.21-.03,.42-.05,.63-.08,.02,.38,.04,.75,.06,1.13,.18-.02,.35-.04,.53-.06,0,.06,0,.12,0,.17,0,.17,.01,.26-.2,.2,0,0,0-.09-.11-.07-.11,.01-.1,.18-.2,.2,.05,.37,.11,.74,.16,1.12-.11,.01-.21,.03-.32,.04,.02,.35,.35,.66,.88,.68,.02,.35-.14,1.33-.35,1.53Zm-7.23,20.28c-.18,.02-.35,.04-.53,.07,.04,.11,.08,.22,.12,.33,.14-.02,.28-.04,.42-.05,0-.12-.01-.23-.02-.35Zm.47-7.4c-.32,.04-.63,.08-.95,.12,0,.06,0,.12,0,.17,.32-.04,.63-.08,.95-.12,0-.06,0-.12,0-.17Zm-.89,11.64c.11,.13,.23,.26,.34,.39,.14-.02,.28-.04,.42-.05-.11-.16-.02-.35-.02-.43-.25,.03-.49,.06-.74,.09Zm1.4-7.86c-.39,.05-.77,.1-1.16,.14,0,0-.09,.27-.09,.36,0,.12,.01,.23,.02,.35,.21-.03,.42-.05,.63-.08,0-.12-.01-.23-.02-.35,.11-.01,.1-.1,.21-.11,.04,.02,.07,.05,.11,.07,0,.09,.12,.25,.12,.33,.18-.02,.35-.04,.53-.07-.12-.22-.23-.44-.35-.66Zm-.39-1.44c-.1,.01-.32-.05-.42-.03,0,.14,.01,.29,.02,.43-.14,.08-.28,.15-.41,.23,.22,.15,.64,.1,.96,.06,0-.09-.02-.35,.08-.45,0-.09-.22-.15-.22-.23Zm-.39,12.98c-.11,.01-.21,.03-.32,.04,.01,.23,.02,.46,.04,.69,.11-.01,.21-.03,.32-.04-.01-.23-.02-.46-.04-.7Zm.08,1.56c0,.09-.21,.03-.32,.04,.04,.11,.08,.22,.12,.33,.11-.01,.21-.03,.32-.04l-.12-.33Zm.95-8.33c-.07-.02-.14-.04-.22-.06-.11-.04-.22-.09-.32-.13,0,.09-.2,.2-.31,.21,0,.09-.09,.27-.09,.36,.32-.04,.63-.08,.95-.12,0-.09,0-.17-.01-.26Zm-.47-40.13c-.11-.04-.22-.09-.33-.13,0,.17,.02,.35,.03,.52,.11-.01,.21-.03,.32-.04,0-.09-.12-.25-.02-.35Zm.38-2.84c-.11,.01-.21,.03-.32,.04,0,.09,0,.17,.01,.26,.11-.01,.21-.03,.32-.04,0-.09,0-.17-.01-.26Zm.5,44.93c-.24,.09-.49,.18-.73,.26,.18,0,.35,.01,.53,.02,.07-.1,.13-.19,.2-.29Zm-.59-3.25c0,.17,.02,.35,.03,.52,.07-.07,.13-.13,.2-.2-.08-.11-.15-.21-.23-.32Zm.74,8.21c-.14,.02-.28,.03-.42,.05,0,.12,.01,.23,.02,.35,.14-.02,.28-.03,.42-.05,0-.12-.01-.23-.02-.35Zm.04,.78c-.14,.02-.28,.03-.42,.05,.01,.2,.02,.41,.03,.61,.18-.02,.35-.04,.53-.06-.05-.2-.09-.4-.14-.59Zm.08-4.64c-.11,.01-.21,.03-.32,.04,.05,.23,.09,.45,.14,.68,.25-.03,.49-.06,.74-.09-.23-.32-.13-.42-.56-.63Zm.17-35.93c-.11,.01-.21,.03-.32,.04,0,.09,0,.17,.01,.26,.11-.01,.21-.03,.32-.04,0-.09,0-.17-.01-.26Zm-.05-9.17s-.07,0-.11,.01c.21,.03,.43,.06,.64,.1,.04,0,.07,0,.11-.01-.11-.16-.43-.12-.64-.1Zm.74,4.02c-.18,.02-.35,.04-.53,.07,0,.09,0,.17,.01,.26,.18-.02,.35-.04,.53-.07,0-.09,0-.17-.01-.26Zm-.05,44.48c0,.12,.01,.23,.02,.35,.07,0,.14-.02,.21-.03,0-.17-.12-.25-.23-.32Zm.4-43.82c-.11,.01-.21,.03-.32,.04,0,.12,.01,.23,.02,.35,.11-.01,.21-.03,.32-.04,0-.12-.01-.23-.02-.35Zm.04,.87c-.11,.01-.21,.03-.32,.04,0,.12,.01,.23,.02,.35,.11-.01,.21-.03,.32-.04,0-.12-.01-.23-.02-.35Zm.19-10.77c-.14,.02-.28,.03-.42,.05l.02,.35c.14-.02,.28-.03,.42-.05,0-.12-.01-.23-.02-.35Zm.64,53.91c-.35,.04-.7,.09-1.05,.13,.01,.23,.02,.46,.04,.69,.52-.15,.63-.08,1.04-.48,0-.12-.01-.23-.02-.35Zm-.47-3c-.11,.01-.32-.05-.43-.04,0,.12,.01,.23,.02,.35,.21-.03,.42-.05,.63-.08-.11-.07-.22-.15-.22-.23Zm2.27-34.35c-.28,.03-.56,.07-.84,.1-.01-.26-.03-.52-.04-.78,.25-.03,.49-.06,.74-.09-.12-.19-.23-.38-.35-.57-.21,.03-.42,.05-.63,.08,.07-.07,.13-.13,.2-.2-.07-.05-.15-.1-.22-.15-.18-.04-.36-.07-.54-.11-.08,.53-.18,.63-.15,1.15-.21,.03-.42,.05-.63,.08,.02,.43,.04,.87,.07,1.3,.2-.2,.71-.61,1.03-.65,.21-.03,.44,.3,.55,.46,.07-.07,.13-.13,.2-.2,.11-.01,.2-.2,.31-.21,.11-.01,.21-.03,.32-.04,0-.06,0-.12,0-.17Zm-.19,2.56c-.21,.03-.43-.04-.65-.18-.45,.23-.9,.46-1.34,.69,0,.12,.01,.23,.02,.35,.7-.09,1.4-.17,2.11-.26-.05-.2-.09-.4-.14-.59Zm-1.28-8.49c-.18,.02-.35,.04-.53,.06,0,.12,.01,.23,.02,.35,.18-.02,.35-.04,.53-.06,0-.12-.01-.23-.02-.35Zm.61-10.82c-.32,.04-.63,.08-.95,.12,0,.17,.02,.35,.03,.52,.21-.08,.42-.17,.62-.25,.11-.01,.21-.03,.32-.04,0-.12-.01-.23-.02-.35Zm-.9,29.99c0-.09,0-.17-.01-.26,.14-.02,.28-.03,.42-.05,0,.09,0,.17,.01,.26-.14,.02-.28,.03-.42,.05Zm.74-12.5c-.11-.07-.32-.05-.43-.04,0,.14,.01,.29,.02,.43,.18-.02,.35-.04,.53-.06-.11-.07-.12-.25-.12-.33Zm-.37,36.22c.21-.03,.42-.05,.63-.08l.12,.34c-.32-.05-.54-.11-.76-.26Zm.33-51.41c-.07,0-.14,.02-.21,.03,0,.06,0,.12,0,.17,.11-.01,.21-.03,.32-.04-.04-.05-.08-.11-.11-.16Zm.03,6.81c-.07,0-.14,.02-.21,.03,0,0,.11,.07,.21,.06,0-.03,0-.06,0-.09Zm.37,11.4c-.18,.02-.35,.04-.53,.06,0,.12,.01,.23,.02,.35,.18-.02,.35-.04,.53-.06,0-.12-.01-.23-.02-.35Zm.25-7.54c-.11,.01-.21,.03-.32,.04,0,.12,.01,.23,.02,.35,.11-.01,.21-.03,.32-.04,0-.12-.01-.23-.02-.35Zm.19,1.64c-.11,.01-.21,.03-.32,.04,0,.09,0,.17,.01,.26,.11-.01,.21-.03,.32-.04,0-.09,0-.17-.01-.26Zm.17,13.61c-.14,.02-.28,.03-.42,.05,0,.17,.02,.35,.03,.52,.21-.03,.42-.14,.62-.25-.08-.11-.15-.21-.23-.32Zm.09,10.04c0,.06,0,.12,0,.17-.11,.01-.21,.03-.32,.04,.2-.26,.4-.51,.6-.77,.14-.02,.28-.03,.42-.05-.09,.27-.4,.48-.71,.61Zm-.05-.96c-.05-.29-.1-.57-.15-.86,.11-.01,.21-.03,.32-.04,.05,.29,.1,.57,.15,.86-.11,.01-.21,.03-.32,.04Zm.33-12.1c-.21,.03-.32-.05-.43-.12,0,.17,.02,.35,.03,.52,.14-.02,.28-.03,.42-.05,0-.09-.12-.25-.02-.35Zm.1,14.4c-.11,.01-.21,.03-.32,.04v-.17c-.02-.17,.07-.45,.28-.65,.18-.02,.35-.04,.53-.06-.09,.27-.29,.56-.49,.85Zm.08-6.65c-.02-.38-.04-.75-.06-1.13,.33,.22,.43,.12,.76,.26,.04,.14,.08,.28,.13,.42-.11,.01-.21,.03-.32,.04,0,.12,.01,.23,.02,.35-.18,.02-.35,.04-.53,.06Zm12.12,21.37c-.21,.02-.31,.12-.31,.21,0,.06,0,.12,0,.17-.21,.02-.42,.14-.52,.15-.42,.05-.64-.1-.65-.36-.63,.07-.61,.51-.82,.53-.22-.06-.44-.21-.55-.37-.21,.11-.19,.37-.19,.46-.35,.04-.7,.08-1.05,.12,.19-.37-.14-.6,.06-.97,0-.06,0-.12,0-.17-.14,.02-.28,.03-.42,.05,0,.09-.1,.19-.2,.2-.11,.01-.21,.02-.32,.04-.11-.16-.12-.25-.13-.42-.01-.26,.08-.45,.07-.62,.25-.03,.49-.06,.74-.09-.02-.35-.04-.69-.05-1.04-.18,.02-.35,.04-.53,.06-.11-.16-.12-.34-.13-.42-.02-.43,.5-.67,.47-1.19-.25,.03-.49,.06-.74,.09,0-.09,0-.17-.01-.26-.03-.61,.15-1.15,.12-1.85,.21-.02,.42-.05,.63-.07,0-.15-.01-.29-.02-.44-.54-.11-.53-.02-.97-.23-.01-.26-.03-.52-.04-.78,.32-.04,.63-.07,.95-.11-.05-.26-.1-.51-.15-.77-.21,.02-.42,.05-.63,.07,0,0,.22,.15,.32,.14,.07,.05,.15,.1,.22,.15,0,.03,0,.06,0,.09-.32,.04-.53-.02-.85,.01-.01-.2-.02-.41-.03-.61,.62-.25,1.25-.41,1.88-.48-.01-.2-.02-.41-.03-.61-.42,.05-.84,.1-1.16,.05-.01-.29-.03-.58-.04-.87,.53-.06,1.05-.12,1.58-.19-.23-.32-.22-.24-.56-.55-.21,.02-.42,.05-.63,.07-.06,.12-.13,.25-.19,.37-.32,.04-.63,.07-.95,.11-.11-.13-.23-.26-.34-.4,0-.17,.09-.27,.19-.37,0-.12-.01-.23-.02-.35,.29,.05,.57,.11,.86,.16,.21-.11,.41-.31,.61-.51,.11,.08,.43,.04,.54,.11,.01,.26,.02,.43,.14,.68,.45-.17,.9-.34,1.35-.51,0-.17-.02-.35-.03-.52-.35,.04-.7,.08-1.05,.12-.05-.2-.09-.4-.14-.6,0,.09-.21,.11-.31,.12-.03,.06-.06,.12-.1,.19-.32-.05-.64-.1-.96-.15-.01-.26-.03-.52-.04-.78-.21,.02-.42,.05-.63,.07,.1-.07,.21-.14,.31-.21,.04,0,.07,0,.11-.01,0-.12-.01-.23-.02-.35-.18,.02-.35,.04-.53,.06-.01-.23-.02-.46-.04-.69-.14,.02-.28,.03-.42,.05-.07-.08-.15-.16-.22-.24-.11-.07-.22-.15-.33-.22,0-.12-.01-.23-.02-.35,.22,.15,.54,.2,.66,.44,.11-.01,.21-.02,.32-.04-.01-.29-.03-.58-.04-.87,.21-.02,.42-.05,.63-.07-.02-.35-.04-.78-.27-1.19,.64,.1,1.08,.31,1.61,.33,0-.17-.02-.35-.03-.52,.35-.04,.7-.08,1.05-.12,0-.06,0-.12,0-.17-.53,.06-1.05,.12-1.58,.18,0-.17-.02-.35-.03-.52,.39-.05,.77-.09,1.16-.14-.05-.34-.11-.69-.16-1.03-.62,.34-1.11,1.18-1.95,1.28,0-.12-.01-.23-.02-.35-.21,.02-.42,.05-.63,.07,0-.17-.02-.35-.03-.52,.21,.06,.54,.2,.65,.36,.19-.46,.39-.74,1.01-.91-.04-.02-.07-.05-.11-.07-.18,.02-.35,.04-.53,.06-.01-.2-.02-.41-.03-.61,.21-.02,.42-.05,.63-.07,.01,.2,.02,.41,.03,.61,.49-.06,.98-.11,1.47-.17-.23-.32-.12-.33-.56-.55-.21,.02-.42,.05-.63,.07,.06-.24,.12-.48,.17-.72,.14-.1,.27-.21,.41-.31,0-.09,0-.17-.01-.26-.32,.04-.63,.07-.95,.11,.08-.53,.18-.63,.15-1.24,.21-.02,.95-.02,1.15-.22,.14-.02,.28-.03,.42-.05-.04-.05-.08-.11-.11-.16q-.11,.01-.21-.06s-.07,0-.11,.01c-.01-.26,.38-.83,.47-1.19-.35,.04-.7,.08-1.05,.12,.02,.38,.04,.75,.06,1.13-.21,.02-.42,.05-.63,.07,0-.12-.01-.23-.02-.35-.11,.01-.21-.06-.32-.05,.06-.12,.13-.25,.19-.37,.18-.02,.35-.04,.53-.06,.06-.12,.13-.25,.19-.37-.22-.15-.53,.06-.64-.1-.65-.36-.66-.45-1.51-.52-.01-.23-.02-.46-.04-.69,.42-.05,.94-.29,1.36-.33-.01-.2-.02-.41-.03-.61,.21-.02,.42-.14,.62-.25,.32-.04,.63-.07,.95-.11,0-.09,0-.17-.01-.26-.32,.04-.63,.07-.95,.11,0-.12-.01-.23-.02-.35-.07,0-.14,.02-.21,.02,.01,.2,.02,.41,.03,.61-.25,.03-.49,.06-.74,.09-.02-.43,.18-.72,.7-.87-.12-.25-.35-.57-.77-.52-.21,.02-.42,.05-.63,.07,.15,.24,.31,.49,.46,.73-.32,.04-.63,.07-.96-.06-.23-.32-.08-1.56-.1-2-.04-.11-.08-.22-.12-.33-.53,.06-.43-.04-.96-.15,0-.09,0-.17-.01-.26,.1-.01,.1-.1,.21-.11,0,.03,0,.06,0,.09,.07-.07,.13-.13,.2-.2-.14,.02-.28,.03-.42,.05-.12-.25-.24-.5-.25-.76-.01-.26,.18-.63,.17-.89,0-.17-.13-.42-.24-.5,.1-.19,.3-.3,.41-.31-.01-.2-.02-.41-.03-.61,.63-.08,.84-.1,1.05-.21,.32-.04,.52-.24,1.04-.47-.04-.14-.09-.28-.13-.42-.84,.1-1.68,.29-2.53,.21-.01-.2-.02-.41-.03-.61,.84-.19,1.24-.58,2.08-.68-.04-.17-.09-.34-.13-.51-.21,.03-.42,.05-.63,.08-.11-.1-.22-.21-.33-.31-.09,.27-.4,.57-.48,.93-.18,.02-.35,.04-.53,.06-.02-.35-.03-.61,.06-.88,.11-.01,.21-.02,.32-.04,.1-.1,.2-.2,.2-.29-.07-.02-.14-.04-.21-.06-.11,.01-.21-.06-.33-.14,0-.17-.02-.35-.03-.52,.32-.04,.63-.08,.95-.11-.33-.22-.65-.27-.98-.41-.12-.25-.13-.42-.14-.68-.03-.52,.16-1.07,.89-1.24-.11-.16-.64-.1-.96-.06-.04-.7,.25-1.25,.22-1.86,.53-.06,1.05-.13,1.58-.19-.34-.4-1.08-.4-1.71-.32,.2-.29,.39-.57,.59-.86,.32-.04,.63-.08,.95-.11-.01-.26,.08-.53,.07-.79-.02-.44-.64-.01-.69-.97-.21,.03-.42,.05-.63,.08-.02-.4-.04-.81-.06-1.21-.18-.07-.36-.13-.54-.2,0-.17,.29-.47,.39-.57-.14,.02-.28,.03-.42,.05-.01-.29-.03-.58-.04-.87,.35-.04,.7-.08,1.05-.13-.11-.08-.22-.15-.22-.24-.11,.01-.32-.05-.43-.04-.13-.51-.04-.78-.46-.73-.63,.08-.72-1.66-.73-1.75,.18-.02,.35-.04,.53-.06-.06-.52-.12-1.03-.19-1.55,.18-.02,.35-.04,.53-.06,.1-.1,.2-.29,.19-.46-.11-.07-.11-.16-.12-.33-.39,.05-.77,.09-1.16,.14-.01-.26,.18-.55,.17-.81,.25-.03,.49-.06,.74-.09,0-.06,0-.12,0-.17-.15-.1-.29-.2-.44-.3-.18,.02-.35,.04-.53,.06-.01-.26-.03-.52-.04-.78,.14-.02,.28-.03,.42-.05,0-.14-.01-.29-.02-.43-.11,.01-.21,.03-.32,.04-.11-.07-.11-.16-.12-.25-.01-.26,.41-.31,.4-.49,0-.03,0-.06,0-.09-.11,.01-.21,.03-.32,.04,0-.09-.11-.16-.11-.16-.02-.35,.52-.15,.51-.41,0,0-.11-.16-.12-.25-.11,.01-.21,.03-.32,.04-.11-.07-.22-.24-.23-.32-.02-.35,.62-.25,.6-.6,0-.09-.11-.16-.22-.24-.11,.01-.21,.03-.32,.04-.08-.25-.17-.5-.25-.76,.18-.02,.35-.04,.53-.06-.01-.26-.03-.52-.04-.78,.84-.1,1.69-.2,2.53-.3,0-.09,0-.17-.01-.26,.04,0,.07,0,.11-.01,0,.09,0,.17,.01,.26,.32-.04,.63-.07,.95-.11,0,.12,.01,.23,.02,.35,.1-.1,.2-.29,.19-.37,.32-.04,.63-.07,.95-.11,0,.17,.33,.31,.65,.27,.11-.01,.21-.02,.32-.04,0-.12-.01-.23-.02-.35,.32-.04,.63-.07,.95-.11,0-.09,0-.17-.01-.26,.1-.1,.31-.21,.52-.23,.42-.05,.23,.41,.44,.38,.1-.1,.2-.2,.3-.3,1.12-.13,2.25-.26,3.37-.39,.84-.1,1.8-.12,2.65-.04-.2,.28-.6,.68-.59,.85,0,.17,.12,.34,.13,.42,.18-.02,.35-.04,.53-.06,.22,.24,.24,.58,.25,.84,.01,.26,.03,.52-.17,.81-.14,.02-.28,.03-.42,.05,.02,.43,.89,.77,.91,1.12,.02,.35-.4,.48-.71,.69,.23,.32,.56,.64,1.09,.66,0,.17,.02,.35,.03,.52-.18,.02-.35,.04-.53,.06,.04,.78-.45,1.54-.41,2.32,.02,.35,.14,.68,.68,.8-.1,.1-.2,.2-.3,.3-.21,.02-.42,.05-.52,.15-.09,.36-.07,.71-.05,1.14,0,.14,.01,.29,.02,.43,.18-.02,.35-.04,.53-.06,.02,.44-.28,.82-.36,1.18,.11,.16,.23,.32,.44,.39-.19,.37-.5,.49-.48,1.02,.02,.35,.2,1.81,.42,2.05-.19,.37-.71,.6-.69,.95,0,.09,.12,.25,.23,.32,.14-.02,.28-.03,.42-.05,.11,.16,.12,.25,.12,.33,.02,.44-.62,.25-.61,.59,0,.17,.01,.26,.12,.34,.14-.02,.28-.03,.42-.05,.22,.15,.33,.31,.35,.57,.03,.52-.48,1.01-.45,1.54,.01,.26,.34,.48,.56,.64-.1,.1-.2,.2-.2,.28-.11,.01-.31,.12-.42,.14,0,.14,.01,.29,.02,.43-.07,.04-.14,.07-.21,.11-.07,.07-.13,.13-.2,.2-.32,.04-.63,.07-.95,.11,0,.17,.02,.35,.03,.52,.42-.05,.94-.28,1.36-.33-.14,.07-.27,.15-.41,.22,.12,.34,.55,.46,.97,.41-.1,.1-.3,.3-.41,.31-.1,.19-.19,.37-.19,.46,.02,.35,.37,.92,.79,1.05-.4,.39-1,1.07-.98,1.51,0,.17,.02,.35,.13,.51,.18-.02,.35-.04,.53-.06,.09,1.13,.19,2.25,.28,3.38-.39,.57-.57,1.29-.54,1.89,.06,1.13,.43,2.14,.49,3.27-.53,.06-1.05,.12-1.58,.18,0,.17,.02,.35,.03,.52,.53-.06,1.05-.12,1.57-.35,.02,.35-.07,.62-.06,.97-.28,.03-.56,.06-.84,.09,.04,.11,.08,.22,.12,.34,.25-.03,.49-.06,.74-.08,.04,.78,.29,1.54,.33,2.32-.32,.04-.63,.07-.95,.11,0,0-.1,.1,0,.17-.1,.07-.2,.14-.31,.21,0,.03,0,.06,0,.09,.39-.04,.77-.09,1.16-.13,.03,.52,.26,1.02,.3,1.63q.03,.52-.61,.59c-.01-.2-.02-.41-.03-.61-.11,.01-.21,.02-.32,.04,.01,.2,.02,.41,.03,.61l.21-.02s0,.06,0,.09c.56,.55,.78,.7,.92,1.47-.21,.02-.42,.05-.63,.07,0,.09,.12,.25,.12,.34,.1-.1,.32-.04,.32-.04,0,.12,.01,.23,.02,.35-.14,.02-.28,.03-.42,.05v.17c.11-.01,.22-.02,.33-.03,.33,.14,.29,1.54,.31,1.89,0,0-.1,.1-.21,.11-.11,.01-.11-.08-.21-.06,0,.14,.01,.29,.02,.43,.14-.02,.28-.03,.42-.05,0,.09,0,.17,.01,.26-.64-.02-.98-.5-1.21-.91-1.06-.06-2.21,.25-3.49,.22,.04,.17,.09,.34,.13,.51,1.16-.13,2.02,.12,3.18,.08-.1,.18-.09,.27-.08,.45-.1,.1-.2,.2-.41,.22,0-.09,0-.17-.12-.34,0,.12,.01,.23,.02,.35,.04,0,.07,0,.11-.01,.04,.17,.09,.34,.13,.51,.83-.35,.82-.44,1.77-.55,.06,.52,.12,1.04,.19,1.55-.25,.03-.49,.05-.74,.08,.05,.95,1,.85,1.02,1.37,0,.09-.1,.1-.1,.18,0,.09,.54,.12,.65,.19-.38,.83-.56,1.55-.51,2.42-.25,.03-.49,.05-.74,.08-.11-.1-.22-.21-.33-.31-.41,.22-.82,.53-.9,.97-.35,.04-.7,.08-1.05,.12,.01,.26,.13,.51,.35,.66,.46-.05,.91-.1,1.37-.15-.11-.07-.32-.05-.43-.04,.09-.27,.29-.47,.39-.66,.1-.1,.21-.11,.31-.12,.1-.01,.96,.16,1.17,.13,.14,2.69,.28,1.28,.88,2.7-.21,.02-.42,.05-.63,.07,.25,.76,.29,1.54,.33,2.24-.74,.08-1.47,.34-2.08,.76,.04,.11,.08,.22,.12,.34-.21,.11-.31,.12-.52,.14-.84,.09-1.29-.38-2.24-.27-.21,.02-.42,.05-.63,.16,0,.12,.01,.23,.02,.35-.07,0-.14,.02-.21,.02-.21,.02-.22-.24-.23-.32q0-.09-.11-.07c-.11,.01-.21,.02-.31,.12-.03,.15-.06,.3-.08,.45-.32,.04-.74,0-1.06,.03,0-.12-.01-.23-.02-.35,.18-.02,.35-.04,.53-.06,0-.17-.02-.35-.03-.52-.21,.02-.42,.05-.63,.07,0-.06,0-.12,0-.17-.25,.03-.49,.06-.74,.08,0,.06,0,.12,0,.17,.25-.03,.49-.06,.74-.08,.04,.17,.09,.34,.13,.51Zm-9.46-50.09c0-.09,0-.17-.01-.26,.04,0,.07,0,.11-.01,.04,.08,.08,.17,.12,.25-.07,0-.14,.02-.21,.03Zm.8,7.33c-.01-.23-.02-.46-.04-.7,.25-.03,.49-.06,.74-.09,.01,.23,.02,.46,.04,.7-.25,.03-.49,.06-.74,.09Zm1.68-2.47c-.32,.04-.63,.08-.95,.11,0,.12,.01,.23,.02,.35,.32-.04,.63-.08,.95-.11,0-.12-.01-.23-.02-.35Zm-.81,2.89c-.04-.11-.08-.22-.12-.33,.07,0,.14-.02,.21-.02,0,.12,.01,.23,.02,.35-.04,0-.07,0-.11,.01Zm.73-4.45c-.1,.1-.2,.29-.19,.37-.11,.01-.32,.04-.31,.12,0,.12,.01,.23,.02,.35,.21-.03,.42-.05,.53,.02,.04,0,.07,0,.11-.01-.01-.26-.03-.61-.15-.86Zm-.42,8.26c0,.17,.02,.35,.03,.52,.04,0,.07,0,.11-.01,0-.17-.02-.35-.13-.51Zm.45-1.63c-.14,.02-.28,.03-.42,.05,0,.12,.01,.23,.02,.35,.14-.02,.28-.03,.42-.05,0-.12-.01-.23-.02-.35Zm.76,2.36c.07-.1,.13-.19,.2-.29-.11-.02-.21-.03-.32-.05,.04,.11,.08,.22,.12,.34-.39,.05-.77,.09-1.16,.14,0,.09,0,.17,.01,.26,.39-.05,.77-.09,1.16-.14,0-.09,0-.17-.01-.26Zm-.94-10.11c0,.06,0,.12,0,.17,.07,0,.14-.02,.21-.03-.07-.05-.15-.1-.22-.15Zm1.05,24.69c0-.06,0-.12,0-.17-.18,.02-.35,.04-.53,.06-.01-.2-.02-.41-.03-.61,.18-.02,.35-.04,.53-.06,.04,.08,.08,.17,.12,.25,0,.17,.02,.35,.03,.52-.03,0-.07,0-.1,.01Zm-.24-21.2c-.11,.01-.21,.03-.32,.04,.01,.2,.02,.41,.03,.61,.11-.01,.21-.03,.32-.04-.01-.2-.02-.41-.03-.61Zm.86,4.44c-.1,.01-.21-.06-.21-.06-.11,.01-.33-.22-.33-.22-.14,.02-.28,.03-.42,.05,.04,.17,.09,.34,.13,.51,.28-.03,.56-.07,.84-.1,0-.06,0-.12,0-.17Zm-.87,30.51l-.02-.35c.14-.02,.28-.03,.42-.05,0,.12,.01,.23,.02,.35-.14,.02-.28,.03-.42,.05Zm.59,1.24c-.32,.04-.53-.03-.54-.11,0-.09-.01-.26,.19-.37,.11,.16,.23,.32,.34,.48Zm-.22-33.26s-.07,0-.1,.01c.21,.06,.33,.14,.54,.11,.04,0,.07,0,.11-.01-.11-.07-.33-.14-.54-.11Zm.74,20.71c.1-.1,0-.17-.01-.26-.21,.02-.42,.05-.63,.07,.09-.27,.08-.53,.07-.79,.32-.04,.63-.07,.95-.11-.1,.19-.2,.29-.19,.37-.11,.01-.21,.11-.31,.12,.11-.01,.11,.07,.11,.16,.21-.02,.32,.05,.43,.12,0,.14,.01,.29,.02,.43-.11,.01-.22-.06-.43-.12Zm-.12-25.06c-.14,.02-.28,.03-.42,.05,0,.12,.01,.23,.02,.35,.14-.02,.28-.03,.42-.05,0-.12-.01-.23-.02-.35Zm.24,2.68c-.18,.02-.35,.04-.53,.06,.18,.04,.36,.07,.54,.11,0-.06,0-.12,0-.17Zm.39,28.26c-.21,.02-.42,.05-.63,.07,0,.17,.02,.35,.03,.52,.21-.02,.42-.05,.63-.07,0-.17-.02-.35-.03-.52Zm-.17-5.31c-.1,.01-.32-.05-.32-.14,0,.09,.22,.15,.32,.14Zm.36-15.77c-.14,.02-.28,.03-.42,.05,0,.09,0,.17,.01,.26,.14-.02,.28-.03,.42-.05,0-.09,0-.17-.01-.26Zm1.06,4.07c-.4,.4-.51,.32-1.14,.57-.01-.2-.02-.41-.03-.61-.04,0-.07,0-.11,.01,.02,.35,.04,.69,.05,1.04,.14-.1,.27-.21,.41-.31,.21-.11,.52-.15,.84-.19,0-.17-.02-.35-.03-.52Zm-1.04,27.29c-.07,0-.14,.02-.21,.02,0,0,.11,.07,.21,.06,0-.03,0-.06,0-.09Zm.09-35.48c.04,.17,.09,.34,.13,.51,.04,0,.07,0,.11-.01-.11-.16-.02-.43-.24-.5Zm.36-7.47c-.11,.01-.21,.02-.32,.04,0,.12,.01,.23,.02,.35,.11-.01,.21-.02,.32-.04,0-.12-.01-.23-.02-.35Zm-.18,31.56c0,.17,.02,.35,.03,.52,.21-.02,.42-.05,.63-.07,.11,.05,.22,.09,.33,.14,0-.06,0-.12,0-.17,.53-.06,1.05-.12,1.58-.18-.55-.37-1.71-.33-2.56-.23Zm.07-29.63c0,.09,.21,.06,.32,.05,.04,0,.07,0,.11-.01-.11-.07-.32,.04-.43-.04Zm.48,38.3c-.11,.01-.32,.04-.43-.04,0,.09,0,.17,.01,.26,.21-.02,.42-.05,.63-.07-.07-.05-.15-.1-.22-.15Zm.13,6.62c-.14,.02-.28,.03-.42,.05,0,.14,.01,.29,.02,.43,.14-.02,.28-.03,.42-.05,0-.14-.01-.29-.02-.43Zm.06-23.68c-.14,.02-.28,.03-.42,.05,.11,.08,.32,.05,.43,.04,0-.03,0-.06,0-.09Zm.06,19.83c-.11,.01-.32-.05-.43-.04,0,.12,.01,.23,.02,.35,.21-.02,.42-.05,.63-.07-.11-.07-.22-.15-.22-.24Zm-.4-36.65c0,.09,0,.17,.01,.26,.11,.05,.22,.09,.33,.14,.06-.12,.13-.25,.19-.37,0-.03,0-.06,0-.09-.18,.02-.35,.04-.53,.06Zm.52,1.77c0-.09,0-.17-.01-.26-.11,.01-.21,.02-.32,.04,.01,.23,.02,.46,.04,.7,.14-.02,.28-.03,.42-.05,0-.17-.02-.35-.13-.42Zm.91,3.21c-.32-.05-.64-.01-.96-.15,.11,.16,.23,.32,.34,.49,.21-.02,.42-.05,.63-.07,0-.09,0-.17-.01-.26Zm-.73,10.57c0,.17,.02,.35,.03,.52,.07,0,.14-.02,.21-.02-.08-.17-.16-.33-.24-.5Zm.04,.87c0,.14,.01,.29,.02,.43,.07-.04,.14-.07,.21-.11-.08-.11-.15-.22-.23-.32Zm.11,6.19c0,.14,.01,.29,.02,.43,.21-.02,.32-.04,.53,.03,.03-.18,.05-.36,.08-.53-.21,.02-.42,.05-.63,.07Zm.58,1.07c-.18,.02-.35,.04-.53,.06,.11,.05,.22,.09,.32,.14,.07,.02,.14,.04,.22,.06,0-.09,0-.17-.01-.26Zm-.48-40.39c0,.12,.01,.23,.02,.35,.11-.01,.21-.02,.32-.04-.11-.1-.22-.21-.33-.31Zm1.5,33.38c-.84,.1-.84,.18-1.46,.43,0,.17,.02,.35,.03,.52,.32-.04,.63-.07,.95-.11,.06-.12,.13-.25,.19-.37,.11-.01,.21-.11,.31-.21,0-.09,0-.17-.01-.26Zm2.5-15.4c-.59,.13-1.19,.25-1.78,.38,0-.14-.01-.29-.02-.43-.62,.25-.62,.33-1.36,.42,.02,.35-.07,.79-.58,1.03,.01,.2,.02,.41,.03,.61,.11-.01,.32,.05,.43,.12,.07-.07,.13-.13,.2-.2,.18-.02,.35-.04,.53-.06-.05-.2-.09-.4-.14-.6,1.05-.12,1.77-.64,2.71-.83,0-.14-.01-.29-.02-.43Zm-2.78,18.14c-.11,.01-.31,.12-.42,.05,.11,.07,.01,.26,.02,.35-.18,.02-.35,.04-.53,.06,.22,.06,.53,.03,.74,0,.07,0,.14-.02,.21-.02,0-.14-.01-.29-.02-.43Zm.56-15.88c-.49,.06-.98,.11-1.47,.17,.05,.34,.11,.69,.16,1.03,.1-.01,.31-.12,.41-.22,0-.17-.02-.35-.03-.52,.25,.03,.5,.06,.75,.09,.07,0,.14-.02,.21-.02,0-.17-.02-.35-.03-.52Zm-.99,11.73c-.11,.01-.32,.04-.43-.04,0,.09,0,.17,.01,.26,.18-.02,.35-.04,.53-.06-.11,.01-.11-.16-.11-.16Zm1.71,20.86c0-.14-.01-.29-.02-.43-.62,.22-1.25,.43-1.87,.65,.12,.25,.34,.49,.57,.72,.46-.05,.91-.11,1.37-.16,.06-.15,.13-.31,.19-.46,0-.17-.12-.25-.23-.32Zm-1.55-17.82c-.11,.01-.21,.02-.32,.04,0,.12,.01,.23,.02,.35,.11-.01,.21-.02,.32-.04,0-.12-.01-.23-.02-.35Zm.3,14.21c-.18,.02-.35,.04-.53,.06,.01,.2,.02,.41,.03,.61,.18-.02,.35-.04,.53-.06-.01-.2-.02-.41-.03-.61Zm-.48-36.29c.04,.14,.09,.28,.13,.42,.11-.01,.21-.02,.32-.04,.11,.07,.22,.15,.33,.22,.56-.06,1.12-.13,1.69-.19,.09-.27,.08-.53,.28-.73-.91,.1-1.83,.21-2.74,.32Zm.76,29.36c-.25,.03-.49,.06-.74,.09,0,.12,.01,.23,.02,.35,.28-.03,.56-.07,.84-.1-.04-.11-.08-.22-.12-.33Zm-.65-20.89c.11,.07,.22,.15,.33,.22,.11-.01,.22,.15,.33,.22,0,0,.21-.11,.31-.12-.11-.07-.01-.26-.02-.43-.32,.04-.63,.07-.95,.11Zm.34-7.73c-.11,.01-.21,.02-.32,.04,0,.12,.01,.23,.02,.35,.11-.01,.21-.02,.32-.04,0-.12-.01-.23-.02-.35Zm.62,18.36c-.1,.19-.3,.3-.4,.4-.17,.08-.35,.16-.52,.23,0,.12,.01,.23,.02,.35,.32-.04,.63-.07,.95-.11-.02-.35,.18-.55,.18-.63,0-.09-.22-.15-.22-.24Zm-.2-1.81c-.14,.02-.28,.03-.42,.05,.01,.26,.03,.52,.04,.78,.21-.02,.42-.05,.63-.07,.12-.33,.25-.67,.37-1-.21,.02-.42,.14-.62,.25Zm.85,8.38c-.42,.05-.84,.1-1.26,.15,.05,.29,.1,.57,.15,.86,.21-.02,.42-.05,.63-.07,0,.15,.01,.29,.02,.44-.1,.1-.21,.11-.42,.13-.11,.01-.1,.1-.1,.19,.11-.01,.21-.02,.32-.04,.11,.16,.22,.24,.23,.41-.21,.02-.42,.05-.63,.07,0,.09,.24,.5,.34,.48,.11-.01,.1-.18,.1-.19,.11-.01,.23,.41,.24,.5,.18-.02,.35-.04,.53-.06-.13-.51,.05-1.05,.03-1.57,.25-.03,.49-.06,.74-.08-.24-.5-.67-.71-.91-1.21Zm-.73-1.75c-.18,.02-.35,.04-.53,.06,0,.09,0,.17,.01,.26,.18-.02,.35-.04,.53-.06,0-.09,0-.17-.01-.26Zm-.39,12.98c.11,.07,.33,.14,.53,.02,.11,.1,.22,.21,.33,.31,.1-.1,.09-.27,.09-.36,0-.03,0-.06,0-.09-.32,.04-.63,.07-.95,.11Zm.41-4.42c-.11,.01-.21,.02-.32,.04,.04,.11,.08,.22,.12,.34,.11-.01,.21-.02,.32-.04-.04-.11-.08-.22-.12-.34Zm.31-10.52c-.18,.02-.35,.04-.53,.06,.01,.2,.02,.41,.03,.61,.18-.02,.35-.04,.53-.06-.01-.2-.02-.41-.03-.61Zm-.07-7.59c-.14,.02-.28,.03-.42,.05,0,.14,.01,.29,.02,.43,.14-.02,.28-.03,.42-.05,0-.14-.01-.29-.02-.43Zm-.02-4.63c-.11,.01-.21,.02-.32,.04,0,.12,.01,.23,.02,.35,.11-.01,.21-.02,.32-.04,0-.12-.01-.23-.02-.35Zm.1,2c-.11,.01-.21,.02-.32,.04,0,.12,.01,.23,.02,.35,.11-.01,.21-.02,.32-.04,0-.12-.01-.23-.02-.35Zm.38-11.14c-.21,.02-.42,.05-.63,.07,.01,.23,.02,.46,.04,.7,.21-.02,.42-.05,.63-.07-.01-.23-.02-.46-.04-.7Zm-.29,23.27c0,.09,0,.17,.01,.26,.07,0,.14-.02,.21-.02-.07-.08-.15-.16-.22-.24Zm.04-1.23c.01,.26,.13,.42,.14,.6,.15,.07,.29,.14,.44,.21,.11-.01,.21-.02,.32-.04-.12-.33-.46-.65-.89-.77Zm1.12,3.19c.11-.01,.21-.02,.32-.04-.11-.16-.23-.32-.34-.48,0-.12-.01-.23-.02-.35-.42,.05-.64-.01-1.06,.03,.11,.07,.22,.24,.23,.41,.28-.03,.56-.06,.84-.1,0,.17,.02,.35,.03,.52Zm-.75,4.02c-.11,.01-.21-.06-.32-.05,0,.12,.01,.23,.02,.35,.21-.02,.42-.05,.63-.07-.11-.07-.22-.15-.33-.22Zm.88,8.81c-.11-.16-.33-.23-.54-.29,0,0-.1,.19,0,.17-.14,.07-.27,.15-.41,.22,0,.17,.02,.35,.03,.52,.41-.22,.73-.17,1.15-.39-.11-.07-.22-.15-.22-.24Zm-.94-10.03c0,.12,.01,.23,.02,.35,.07-.04,.14-.07,.21-.11-.07-.08-.15-.16-.22-.24Zm.35-7.73c-.11,.01-.21,.02-.32,.04,.01,.29,.03,.58,.04,.87,.11-.01,.21-.02,.32-.04-.01-.29-.03-.58-.04-.87Zm.07-2.8c-.11-.05-.22-.09-.32-.14,0,.12,.01,.23,.02,.35,.11-.01,.21-.02,.32-.04,0,0-.11-.16,0-.17Zm.62,9.98c-.2,.29-.5,.58-.81,.79,0,.12,.01,.23,.02,.35,.32,.05,.53,.03,.85-.01,.14-.02,.28-.03,.42-.05,.32-.04,.63-.16,.83-.36,0-.09,.31-.21,.3-.3-.53-.03-.64-.1-.35-.57-.11-.07-.33-.14-.43-.04-.11-.13-.23-.27-.34-.4-.31,.18-.62,.36-.92,.54,0-.14-.01-.29-.02-.43-.14,.02-.28,.03-.42,.05,0,.14,.01,.29,.02,.43,.14-.02,.28-.03,.42-.05,.14,.01,.28,.03,.42,.04Zm-.62,2.43c.01,.2,.02,.41,.03,.61,.21-.02,.43,.04,.64,.01,.07,0,.14-.02,.21-.02,.11-.01,.21-.02,.31-.12,.07,0,.14-.02,.21-.02-.13-.42-.87-.51-1.4-.45Zm.68-21.83c-.21,.02-.42,.05-.63,.07,0,.14,.01,.29,.02,.43,.21-.02,.42-.05,.63-.07,0-.14-.02-.29-.02-.43Zm.54,31.13c-.14,.02-.28,.03-.42,.05-.09,.36,.04,.7,.05,1.04,.01,.26-.29,.47-.61,.59,.35,.57,.55,.46,.8,1.13q.3-.3,.72-.43c-.04-.87-.4-1.53-.55-2.38Zm-.65-18.97c-.11,.01-.21,.02-.32,.04,.11,.05,.22,.09,.33,.14,0-.06,0-.12,0-.17Zm.13-3.68s0-.06,0-.09c-.14,.02-.28,.03-.42,.05,.01,.2,.02,.41,.03,.61,.18-.02,.35-.04,.53-.06,0-.09-.01-.17,.09-.36-.11,.01-.11-.08-.22-.15Zm.16,1.03c-.18,.02-.35,.04-.53,.06,0,.09,0,.17,.01,.26,.18-.02,.35-.04,.53-.06,0-.09,0-.17-.01-.26Zm0,24.81c-.14,.02-.28,.03-.42,.05,0,.12,.01,.23,.02,.35,.14-.02,.28-.03,.42-.05,0-.12-.01-.23-.02-.35Zm.26-23.79c-.21,.08-.42,.16-.62,.25,0,.12,.01,.23,.02,.35,.21-.02,.42-.05,.63-.07,0-.17-.02-.35-.03-.52Zm-.2,16.8c-.14,.02-.28,.03-.42,.05,0,.09,0,.17,.01,.26,.14-.02,.28-.03,.42-.05,0-.09,0-.17-.01-.26Zm.56-9.68c-.21,.02-.53,.06-.73,.17l.02,.35c.28-.03,.56-.06,.84-.1-.04-.14-.08-.28-.13-.42Zm-.73,12.58c.11,.16,.43,.21,.64,.19,.04,0,.07,0,.11-.01-.22-.24-.54-.11-.75-.18Zm.67-13.71c-.14,.02-.28,.03-.42,.05,0,.09,0,.17,.01,.26,.21-.02,.42-.05,.63-.07-.07-.08-.15-.16-.22-.24Zm.03,.52c-.14,.02-.28,.03-.42,.05,0,.06,0,.12,0,.17,.14-.02,.28-.03,.42-.05,0-.06,0-.12,0-.17Zm-.08-5.67c-.07,0-.14,.02-.21,.02,.32,.05,.64,.02,.95-.02,.04,0,.07,0,.11-.01-.22-.06-.53-.03-.85,0Zm-.17,.89c.04,.7,.13,.51,.58,1.07,.11-.01,.21-.02,.32-.04-.02-.43-.26-.93-.9-1.03Zm.35,10.88c-.11,.01-.21,.02-.32,.04,.11,.02,.21,.03,.32,.05,0-.03,0-.06,0-.09Zm.32-33.06c-.1,.1-.19,.37-.09,.27-.11,.01-.31,.12-.31,.12,0,.14,.01,.29,.02,.43,.35-.04,.7-.08,1.05-.12-.12-.34-.35-.57-.67-.71Zm-.07,44.13c-.11,.01-.21,.02-.32,.04,.05,.23,.09,.46,.14,.68,.11-.01,.21-.02,.32-.04-.05-.23-.09-.45-.14-.68Zm.96-3.95c-.42,.05-.84,.1-1.26,.14,0,.06,0,.12,0,.17,.42-.05,.84-.1,1.26-.14,0-.06,0-.12,0-.17Zm-.43-14.63c-.11,.01-.1,.1-.21,.11,0,.03,0,.06,0,.09-.03,.06-.06,.12-.1,.19-.18,.02-.35,.04-.53,.06,.21,.06,.53,.03,.74,0,.04,0,.07,0,.11-.01,0-.14-.01-.29-.02-.43Zm-.72,2.44c0,.09,.12,.16,.12,.33,.18,.04,.36,.08,.54,.11-.07,.07-.13,.13-.2,.2-.11-.07-.21,.02-.32,.04,0,.14,.01,.29,.02,.43,.32-.04,.63-.16,.94-.28,.06-.15,.13-.31,.19-.46,.11-.01,.21-.02,.32-.04-.44-.39-1.08-.4-1.61-.34Zm1.54,7.34c0-.09,.1-.19,.09-.27-.04-.05-.08-.11-.11-.16,0-.12-.01-.23-.02-.35-.11,.01-.21,.02-.32,.04,0,.12,.01,.23,.02,.35-.18,.02-.35,.04-.53,.06,0-.12-.01-.23-.02-.35-.21,.02-.42,.05-.63,.07,.05,.2,.09,.4,.14,.6,.35-.04,.7-.08,1.05-.12,.12,.28,.24,.56,.36,.83,.21-.02,.42-.05,.63-.07-.23-.32-.34-.49-.67-.62Zm-1.01-19.63c-.11,.01-.21,.02-.32,.04,.11,.02,.21,.03,.32,.05,0-.03,0-.06,0-.09Zm.37,5.11c-.11,.01-.21,.02-.32,.04,0,.12,.01,.23,.02,.35,.11-.01,.21-.02,.32-.04l-.02-.35Zm1.32,9.2c-.28,.03-.56,.06-.84,.1,0-.06,0-.12,0-.17-.21,.02-.42,.05-.63,.07,0,.17,.02,.35,.03,.52,.49-.06,.98-.11,1.47-.17,0-.12-.01-.23-.02-.35Zm1.51,6.73c-.96-.07-2.01-.04-2.96,.07,.44,.3,.76,.26,.99,.76,.66-.19,1.32-.38,1.98-.57,0-.09,0-.17-.01-.26Zm-1.72,7.88c-.35,.04-.7,.08-1.05,.12,0,.17,.02,.35,.03,.52,.35-.04,.7-.08,1.05-.12,0-.17-.02-.35-.03-.52Zm-.07-11.7c-.32,.04-.63,.07-.95,.11,.23,.32,.34,.4,.66,.54,.04,.05,.08,.11,.11,.16,.11-.01,.21-.02,.32-.04-.05-.26-.1-.51-.15-.77Zm.47,5.01c-.73,.26-.62,.33-1.36,.42,.33,.22,.96,.15,1.38,.11,.01,.2,.02,.41,.03,.61,.07-.07,.13-.13,.2-.2,.11-.01,.4-.48,.4-.48-.22-.15-.44-.3-.66-.45Zm-1.17-14.46c.15,.07,.29,.14,.44,.21,.03-.09,.06-.18,.09-.27-.11-.07-.74,0-.53,.06Zm.48-23.64c-.18,.02-.35,.04-.53,.06,0,.12,.01,.23,.02,.35,.18-.02,.35-.04,.53-.06,0-.12-.01-.23-.02-.35Zm-.21,39.34c-.07,0-.14,.02-.21,.02,0,0,.11,.08,.22,.06,0-.03,0-.06,0-.09Zm.52-10.54c-.14-.04-.29-.08-.43-.13-.03,.06-.06,.12-.1,.19,0,.03,0,.06,0,.09-.11,.01-.21,.11-.2,.2,0,.03,0,.06,0,.09,.04,0,.07,0,.11-.01,.21-.02,.52-.15,.63-.16,.07,0,.14-.02,.21-.02-.07-.08-.15-.16-.22-.24Zm-.28,9.03c-.11,.01-.21,.02-.32,.04,0,.12,.01,.23,.02,.35,.11-.01,.21-.02,.32-.04,0-.12-.01-.23-.02-.35Zm.66-11.87c-.21,.02-.42,.05-.63,.07,.05,.29,.1,.57,.15,.86,.04,0,.07,0,.11-.01,0-.09,0-.17-.01-.26,.18-.02,.35-.04,.53-.06-.05-.2-.09-.4-.14-.6Zm.09-16.79s.07,0,.11-.01c-.07-.05-.15-.1-.22-.15,.04,.05,.08,.11,.11,.16-.18,.02-.35,.04-.53,.06,.07,.08,.15,.16,.22,.24,.1-.1,.21-.02,.32-.04,0-.09,0-.17-.01-.26Zm.03,25.34c-.14,.02-.28,.03-.42,.05,.11,.07,.32,.05,.42,.04,0-.03,0-.06,0-.09Zm.1-6.39c-.14,.02-.28,.03-.42,.05,.07,.05,.15,.1,.22,.15,.07,.02,.14,.04,.22,.06,0-.09,0-.17-.01-.26Zm-.38,15.25c0,.12,.01,.23,.02,.35,.11-.01,.21-.02,.32-.04-.11-.1-.22-.21-.33-.31Zm1.91-1.96c-.28,.03-.56,.06-.84,.09-.2,.2-.51,.41-.93,.45,0,.14,.01,.29,.02,.43,.63-.07,1.15-.3,1.44-.77,.11-.01,.21-.02,.32-.04,0-.06,0-.12,0-.17Zm-1.42-23.52c-.11,.01-.21,.02-.32,.04,.11,.05,.22,.09,.33,.14,0-.06,0-.12,0-.17Zm.58,25.71c-.14,.02-.28,.03-.42,.05,0,.06,0,.12,0,.17,.14-.02,.28-.03,.42-.05,0-.06,0-.12,0-.17Zm.02,.35c-.14,.02-.28,.03-.42,.05,0,.12,.01,.23,.02,.35,.14-.02,.28-.03,.42-.05,0-.12-.01-.23-.02-.35Zm.15-9.54c0-.12-.01-.23-.02-.35-.11,.01-.21,.02-.32,.04,.02,.35,.04,.7,.05,1.04,.21-.02,.42-.05,.63-.07,0-.17-.03-.61-.35-.66Zm.24,8.8c-.1,.1-.32,.04-.42,.05,0,.12,.01,.23,.02,.35,.21-.02,.42-.05,.63-.07-.11-.07-.22-.24-.23-.32Zm.15-11.64c-.11,.01-.21,.02-.32,.04,0,.12,.01,.23,.02,.35,.11-.01,.21-.02,.32-.04,0-.12-.01-.23-.02-.35Zm.5,11.91c-.14,.02-.28,.03-.42,.05v.17c.22-.02,.43-.05,.64-.07-.07-.05-.15-.1-.22-.15Z"/><path d="M421.88,56.45c-.31-1.84-.62-3.68-.93-5.51-.09,0-.17,.02-.26,.02-2.12,3.42-6.88,7.07-13.8,7.74-8.98,.87-14.04-4.04-14.35-10.08-.5-9.74,9.16-16.35,27.01-17.83-.02-.42-.04-.83-.06-1.25-.26-5.02-1.72-12.17-12.3-11.11-3.86,.37-7.82,1.7-10.89,3.88-.55-.94-1.09-1.87-1.64-2.8,3.62-2.57,8.68-4.17,13.02-4.58,12.27-1.16,16.24,5.91,16.66,14.12,.3,5.78,.59,11.55,.89,17.33,.17,3.23,.46,6.73,1.14,9.71-1.5,.12-2.99,.25-4.49,.38Zm-2.16-22.26c-8.88,.57-22.61,3.01-22.08,13.36,.31,6.07,4.9,8.15,9.6,7.7,7.19-.69,11.36-4.94,12.64-9.43,.27-.94,.34-1.86,.3-2.6-.15-3.01-.31-6.02-.46-9.04Z"/><path d="M453.34,45.45c.1,2.04,.99,3.49,2.67,4.35,1.68,.86,3.84,1.22,6.48,1.08,2.4-.12,4.88-.59,7.43-1.4,2.55-.81,4.63-1.75,6.22-2.84,.13-.12,.32-.18,.56-.19,.48-.02,.97,.21,1.48,.67,.5,.47,.77,.94,.79,1.42,.01,.23-.06,.44-.22,.65-1.08,1.15-3.25,2.25-6.53,3.32-3.28,1.08-6.63,1.7-10.06,1.88-3.57,.18-6.71-.43-9.43-1.84-2.72-1.42-4.14-3.18-4.24-5.31-.38-7.41-.76-14.83-1.14-22.24-2.45,.16-4.9,.33-7.36,.5-.75,.05-1.35-.09-1.78-.43-.43-.34-.66-.75-.68-1.23-.02-.45,.14-.86,.51-1.21,.36-.35,.88-.55,1.57-.6,2.52-.18,5.04-.35,7.56-.51-.26-5.02-.26-8.29-.01-9.83,.25-1.54,1.08-2.35,2.48-2.44,.75-.05,1.26,.09,1.52,.4,.26,.31,.4,.78,.43,1.4,.17,3.39,.35,6.78,.52,10.17,6.38-.39,12.76-.72,19.13-.99,.62-.03,1.11,.13,1.49,.47,.38,.34,.58,.74,.6,1.19,.02,.48-.13,.9-.48,1.26-.34,.35-.84,.55-1.49,.57-6.36,.27-12.72,.6-19.08,.98,.35,6.92,.71,13.84,1.06,20.76Z"/></svg>