<svg xmlns="http://www.w3.org/2000/svg" viewBox="0 0 600.07 2.24"><path d="M385.49,149.12c-1.25,0-1.89-.05-.09,0Z" transform="translate(152.71 -148.77)" style="fill:none"/><path d="M-12.42,149.12l-.73,0C-13.61,149.13-14.07,149.17-12.42,149.12Z" transform="translate(152.71 -148.77)" style="fill:none"/><path d="M206.11,150.1a21.19,21.19,0,0,0,2.58,0C207.74,150.09,206.87,150.09,206.11,150.1Z" transform="translate(152.71 -148.77)" style="fill:none"/><path d="M142.21,150.53a25.92,25.92,0,0,0,3,0A12.26,12.26,0,0,0,142.21,150.53Z" transform="translate(152.71 -148.77)" style="fill:none"/><polygon points="564.27 0.18 565.02 0.18 568.89 0 564.27 0.18" style="fill:#1d1d1b"/><path d="M427.39,149.65c-1.62,0-3,.1-4.25.17,1.33,0,2.74,0,4.56.05C428.69,149.77,426.35,149.71,427.39,149.65Z" transform="translate(152.71 -148.77)" style="fill:#1d1d1b"/><path d="M423.14,149.82c-.74,0-1.43.08-2.09.1" transform="translate(152.71 -148.77)" style="fill:none;stroke:#1d1d1b;stroke-linecap:round;stroke-linejoin:round;stroke-width:0px"/><path d="M435.32,150l.92.14h.93A10.55,10.55,0,0,0,435.32,150Z" transform="translate(152.71 -148.77)" style="fill:#1d1d1b"/><path d="M436.24,150.11h0Z" transform="translate(152.71 -148.77)" style="fill:#1d1d1b"/><path d="M434.59,150.1h0Z" transform="translate(152.71 -148.77)" style="fill:#1d1d1b"/><polygon points="588.96 1.34 588.96 1.34 588.96 1.34 588.96 1.34 588.96 1.34" style="fill:#1d1d1b"/><polygon points="588.96 1.34 588.96 1.34 588.96 1.34 588.96 1.34 588.96 1.34" style="fill:#1d1d1b"/><path d="M437.17,150.11h.23" transform="translate(152.71 -148.77)" style="fill:none;stroke:#1d1d1b;stroke-linecap:round;stroke-linejoin:round;stroke-width:0px"/><path d="M447.36,150.28c-1.38.08-4.27.16-1.48.28C446.88,150.47,445.28,150.4,447.36,150.28Z" transform="translate(152.71 -148.77)" style="fill:#1d1d1b"/><path d="M441.24,150.19l-2.69.1,2.5,0S440.56,150.23,441.24,150.19Z" transform="translate(152.71 -148.77)" style="fill:#1d1d1b"/><path d="M124,150.54l-1.18,0Z" transform="translate(152.71 -148.77)" style="fill:#1d1d1b"/><path d="M132.5,150.55l.21-.06C132.31,150.52,132.15,150.55,132.5,150.55Z" transform="translate(152.71 -148.77)" style="fill:#1d1d1b"/><path d="M287.49,149c1.2,0,2.12,0,2.9,0a18,18,0,0,0-3.43-.16l.52.14h0Z" transform="translate(152.71 -148.77)" style="fill:#1d1d1b"/><path d="M203.05,149.87l1.16-.13-1.66.09.5,0Z" transform="translate(152.71 -148.77)" style="fill:#1d1d1b"/><path d="M201.33,150.41l-2.27-.09C199.57,150.35,200.3,150.39,201.33,150.41Z" transform="translate(152.71 -148.77)" style="fill:#1d1d1b"/><path d="M75.88,150.81c2.16,0,1.21-.07,1.38-.14Z" transform="translate(152.71 -148.77)" style="fill:#1d1d1b"/><path d="M365.15,149.1c-1.48-.06-2.66-.08-3.7-.09A26.88,26.88,0,0,0,365.15,149.1Z" transform="translate(152.71 -148.77)" style="fill:#1d1d1b"/><path d="M127.32,149a3.69,3.69,0,0,0-1,.09h0C127.06,149.11,127.48,149.08,127.32,149Z" transform="translate(152.71 -148.77)" style="fill:#1d1d1b"/><path d="M357.17,149l.78,0c1.09,0,2.18,0,3.5,0A38.17,38.17,0,0,0,357.17,149Z" transform="translate(152.71 -148.77)" style="fill:#1d1d1b"/><path d="M-92,150.48l-.39,0S-92.31,150.48-92,150.48Z" transform="translate(152.71 -148.77)" style="fill:#1d1d1b"/><path d="M-141.37,149h2C-139.71,149-140.32,149-141.37,149Z" transform="translate(152.71 -148.77)" style="fill:#1d1d1b"/><path d="M397.63,149c1.1,0,.17,0,0,0Z" transform="translate(152.71 -148.77)" style="fill:#1d1d1b"/><path d="M403,149.56a1.16,1.16,0,0,0-.44.06A1.84,1.84,0,0,1,403,149.56Z" transform="translate(152.71 -148.77)" style="fill:#1d1d1b"/><path d="M346,149.88c.33,0,.27,0,.1,0Z" transform="translate(152.71 -148.77)" style="fill:#1d1d1b"/><path d="M397.88,149l1.41,0Z" transform="translate(152.71 -148.77)" style="fill:#1d1d1b"/><path d="M399.07,149h1C400.18,149,400.05,149,399.07,149Z" transform="translate(152.71 -148.77)" style="fill:#1d1d1b"/><path d="M397.88,149l-.25,0h-1.55Z" transform="translate(152.71 -148.77)" style="fill:#1d1d1b"/><path d="M-1.57,150.13c-1.12.06-.63.05.24,0Z" transform="translate(152.71 -148.77)" style="fill:#1d1d1b"/><path d="M261.68,150.47h0Z" transform="translate(152.71 -148.77)" style="fill:#1d1d1b"/><path d="M257.57,150.58a26,26,0,0,1,3.94-.11l-1.31-.41Z" transform="translate(152.71 -148.77)" style="fill:#1d1d1b"/><path d="M116.17,150.62l-1.13,0c3.58.21,2.66-.32,7.28-.25,1.6,0,2.73.1,1.63.15l3.58-.11c1,0,.79.09-.25.08l5.47,0,0,0c.78-.07,2.55-.18,3.41-.22,1.39.06-.7,0-.34.1l3-.11c1.24.12-1.27.23-3.36.21,2.82.44,2.51-.11,8.61.15l-2.86,0c1.84.26,4.07.17,7.3.32-.77-.08-6.47-.39-3.18-.5.92,0,2.14,0,3.92,0a18.4,18.4,0,0,0,3.91.11l-.15.21c2.34-.06,2.15-.17,3.53-.26a13.94,13.94,0,0,1,3.76.32c4.18,0-2.88-.26,2.06-.3,3.48.08,5.92,0,10.07-.12,2.44.07-.42.13.45.19l2.16-.17c.52,0,.35.06.27.08a28.31,28.31,0,0,1,3-.26c.78-.23,5.86.34,9.4.08.87.06-.42.12-.16.2,4.85-.16,4.16-.12,8.14-.35l3.4.14c-2.5-.15.69-.34,3.48-.49-.88-.07-1.64-.14-2.15-.17l4.46-.11c.53,0,.08.1-.64.19l.81-.05c1.59.08.77.2-.38.31l-1.6-.13h0c-1.1.12-2.13.26-1.9.38s.85,0,1.46,0c-.29,0-.47.06-.34.08a11.76,11.76,0,0,0,1.34-.08l1,.24.25-.1,5.82.15c4.17-.23,7.8-.57,14.41-.66-1.64.17-.35.27-.45.47-1.8-.21-5.12.09-8.54.05,1.78,0,1.39.12.93.15l6.12-.19c-.14.16,1.29.12,2.89.19-1.2-.32,4.56-.21,7-.31.15.11-.45.22-3.48.19,3.34.25,4.33-.38,7.61-.17a10.31,10.31,0,0,0-1.43,0c1.73-.09,6,0,5,.08H240c4.92,0,15,0,15.71-.27a2.72,2.72,0,0,1-.94.39l8.78-.92c-.77.23,2.19.8-1.89.93,1.17,0,2.62.08,5.09,0-.8,0-2-.34-.9-.36,3,.26,2.08.14,5.77.37-1.2-.05.14-.43,2-.41-.3.05.15.36-.54.4l4.72-.36c-1.18.06-.21.31.84.41-.49-.07,4.07,0,5.33,0l-2-.09c5.32.06,5.26-.51,10.53-.49-.64.08-1.58.46,1.1.51a81.05,81.05,0,0,1,10.13-1l.89.11,3.58-.12c-2.23.28-8.49.87-11.91,1.1a32.93,32.93,0,0,0,3.53.11c1.05.11-1.62.16-2.5.16l6.94.07c-.31-.22,5.31-.22,5-.4l-7.54.22c-.3-.21,4.37-.61,9.28-.57,1.25.08-.94.38-.83.46.63-.08,4.66-.14,5.11-.09l-2.08.12c2.73.08,4.47-.29,7.75-.08,1.14,0,3.39.28,3.59.15-1.85-.25-2.21-1-1-1.21.4,0,6,.24,7.25.37,1.87.19-2.81.46-1.22.63a11.58,11.58,0,0,1,1.54-.16c1.19.06-.5.19,2.09.16.44-.22,5.27,0,1.23-.18,2.53-.07,2.69,0,5.67,0-1-.14,2.67-.48,5.21-.54-.15.05.42.13.7.16,5.19,0,8,.12,12.82.13.45.05,2.79.12,1.79.21.7,0,1.34-.11,2.83-.12,2.89.2-3.33,0-1.13.26.19-.12,3.87-.17,6-.25a59.55,59.55,0,0,0-7.05,0c0-.28,3.7-.56,8.77-.69,4-.06,1.74.18,2.44.14,7.55.05,6.44-.47,12.71-.27,2.49.17.11.34.66.47-3.27.07-5-.11-7.25-.11l2.74.09c-1,.06-3.24.1-4.43.05,2.09.16,12.77,0,18.6.18,1-.06,2.83-.12,2-.19l-1.84,0c-1.7-.15,3.47-.2,1.13-.26,2.48-.1,5.26-.26,8.74-.18l.65.2a26.59,26.59,0,0,0-3.25-.06c1.45-.08,5.34.28,6.93,0l-2.44-.14c2.48-.1,5.56-.31,8.64-.25-1.4-.19-.71,0-2.9-.21,1.9.29-7.9,0-4.85.29-2.24-.27-3.89-.11-6.83-.34.09.06,1,.12-1.55.09l-.57.06h0c-.12,0-.13,0,.05,0,.62,0,1.12.07,1.32.1-1.29.15-5.41.15-6.81.22s.65-.07-.19-.14l-2.08.11c-.21-.14-4.09-.24-.46-.32H388c-1.91-.08-4.55-.12-6.18-.06s-3.89.16-2.55.05l-5.12.09,0,0c-5.05,0-10.39.24-16.16,0-1.7,0-3.46.08-6.3,0l-.55-.13c-2.18.05-6.55-.13-7.49,0-2.35-.34-10.58-.08-14.42-.14L329,149c-2.64,0-5.17,0-8.45.1l.2.15c-2.82.11-7.26-.11-11.73-.1a18.08,18.08,0,0,1,2.24,0c-5.34-.34-11.27.23-16.11,0-1.21,0-2.08,0-2.93,0h-.2l-1.67-.08,1.41.08c-.93,0-2.34,0-3.73,0l-.58-.15h-.33c-1.35-.06-1.09.07-.37.19-.69,0-1.33.06-1.83.1-1.1-.26-3.63.08-5.13-.19-.93.13-7,.09-7.7.37,0,0-.45,0,.29,0-1.54,0-3.08-.07-4.46,0l-.66-.2-3.37.27c-2-.13-2.89-.2-.86-.35-4.9.23-4,.09-8.15.32l.2-.13c-1.49,0-3.88.18-4.77.07-3.34-.25-16.51,0-25.08-.27,1.66.38-4-.17-4.32.12-.5-.09-1.69-.14-.3-.22-4.37.09-6.57-.14-9.59.1-.49-.09.94-.13.5-.18a14,14,0,0,1-1.85,0c-.44-.05.64-.07,1.34-.11-4.47,0-4.92.29-5.25.55a27.27,27.27,0,0,0-5,.06c-.78-.09-2.1-.18.68-.2-1.56,0-9.53-.13-9.7.07-.48-.05-2.18,0-2.59,0-3.5,0-3.81,0-7.25,0l1,0a42.26,42.26,0,0,1-5.64.09l.08,0c-6.35-.18-2.74.09-9-.12l.34.15c-.59.34-5.56-.2-9.2-.07l1.32.09c-2,.11-5.56-.46-7.55-.5-.44,0,.68-.05,1.29-.07-5.22-.2-.68.2-4.57.25-.72-.11.93-.28-1.69-.3-1.31-.09-7.61.35-11.19.14.79.09,1.57.17-.24.23-2.77,0-7.49-.32-10-.05a1.82,1.82,0,0,1-.5-.07h0c-2.12.07-6.89.11-8.16.26-2-.54-13.18.25-13.13-.24l-6.52,0,.17,0a65.78,65.78,0,0,0-7.11.2c-1,0-.26-.08-.18-.1-6.09-.11-6.69-.09-11.8.16l-.53-.16c-1.38.09-8.8-.26-14.77-.07a2.68,2.68,0,0,1,.65-.08c-6.72.19-16.08-.45-18.55.14l-4.43.14c5.73.05-.86.25,1.5.35-2.26,0-5.83-.18-3.06-.21l.44,0c1-.3-7.13-.11-7-.32C22.57,149.21,11.56,149,1,149l1.22.24H-1.48c-1-.06-1.3-.19,1.33-.18a27.21,27.21,0,0,0-4.49.16c-5.15-.1,2-.27.44-.28l-2.15,0,.49,0a50.1,50.1,0,0,1-5.06.19,12.7,12.7,0,0,1-1.82-.16,10.37,10.37,0,0,0-1.2,0l-4.65,0,1.86.19c-2.06.09-4.37,0-2.23.2-3.15-.32-17.33-.12-19.26-.22-2.89.13-5.74.13-9.26.11.87,0,1.39.25-1.65.22,1.12-.43-5.57-.19-8-.5,2.19.21-8.65,0-5.21.34-2.54,0-.15-.16-2.08-.26-6,.16-13.31-.12-20.78-.06-.12.05,1.13.14-.47.23l-3.94-.29a19.42,19.42,0,0,1-4.05.13c.38,0,.94.12,0,.14-14.62-.29-29.89.21-44.75-.32,2,.11.67.12-.87.13,1,0,0,.14.18.22l-6.22-.22c-1.14.21-6.67,0-7.32.22l2,0c-2.62.24,3.66.54,3.27.85,2.94-.27,7.73.41,12.55,0,1.06.06-.91.1-.34.17a43.24,43.24,0,0,1,5.43-.1l-.31,0c7.67,0,10.95.1,19.57.19l-.64-.15c1.85,0,2.24.07,3.11.1,2.13-.23-5.2,0-3.26-.27,2.45.32,13.06,0,14.71.37,2.85,0-.83-.18,2-.18l.75.1.72-.12a11.13,11.13,0,0,1,2.88.22c-.45,0-1.29,0-1.77,0,2.42.11,6.82,0,7.65,0l-2.73-.06c7.77-.09,17.26,0,24.78-.15l-.57-.07c5.73-.13,4.59.08,10.89,0l-.23,0c1.26-.07,2.94-.11,4.66-.1-1.59.08,3,.17.91.26A68.27,68.27,0,0,0-39.5,150l.94.12a43.39,43.39,0,0,1,4.67-.2c-2.59.11,2,.19-.89.32,6.6.27,9.8-.26,12.83.13,3-.33-5.71-.19-4-.26-1.43-.11,2.5-.25,4.57-.21s3.58.43,8.88.42l-1.09,0c2,.09,3.89-.11,6.33,0,1.36-.2,3.16,0,3.55-.25l-4.86.06c2.75-.06,5.34-.36,9.89-.22-.36.06-1.71.12-2.64.16,1.33.08,2.56,0,3.93,0-.39.26-5.91.05-8.86.25,1.42.11,5.59-.19,4.1.09,2.14-.35,5.22.05,8.82-.22l-.24.15c.57,0,1.75-.09,2.79-.09l-1.89.2c2.91-.17,5.6.15,8.39.06-5.84,0-1.31-.19-3.78-.3,7.21-.2,4.14.41,12.2.34-1.09,0-4.09-.1-2.38-.17,1.53,0,3.56.09,4.5.17,5.34,0-.82-.15,1.45-.25a34.69,34.69,0,0,0,5-.13v.15c6.09.11,1.62-.32,7.1-.2l-2.32.22,2.86-.06-.59.18c3.11-.13,4.08-.09,7.12,0-.71-.11.4-.29,3.1-.29,1.84.09-1,.15,2.79.13a15.27,15.27,0,0,1-3.47.07c-.17,0-.85.1-1,.15,2,.11,5,0,6.36,0-.53,0-1.17,0-1.5,0l5.55-.22c.87.06.18.11-.51.16,1.12,0,1.9-.09,3.55-.11-.43.13-.33.26-2.66.32l5.28-.14c.35.06,2.7.16,2,.2,2.92.08,7.18-.24,11.06-.14h0c.21,0,.61,0,1.43-.07,3.65,0,6.88.19,11.2,0l2.45.23c3.39,0-3.32-.29,2.32-.38,4-.07,1.49.2,2.89.26a84.78,84.78,0,0,1,9.1-.16c-1.22.05-2.17,0-3.3,0l2.79.13c-3.37.2-5.81.13-3.19.31h0c.41-.44,10.86,0,11.25-.48Zm89.94-.52c.76,0,1.63,0,2.58,0A21.19,21.19,0,0,1,206.11,150.1Zm179.38-1h-.09C383.6,149.07,384.24,149.09,385.49,149.12Zm-398.64,0,.73,0C-14.07,149.17-13.61,149.13-13.15,149.08Zm155.36,1.45a12.26,12.26,0,0,1,3,0A25.92,25.92,0,0,1,142.21,150.53Z" transform="translate(152.71 -148.77)" style="fill:#1d1d1b"/><polygon points="440.2 0.24 440.2 0.23 440.19 0.23 440.2 0.24 440.2 0.24" style="fill:#1d1d1b"/><polygon points="440.2 0.24 440.2 0.23 440.19 0.23 440.2 0.24 440.2 0.24" style="fill:#1d1d1b"/><polygon points="355.77 1.1 355.76 1.1 355.76 1.1 355.76 1.1 355.77 1.1" style="fill:#1d1d1b"/><polygon points="355.77 1.1 355.76 1.1 355.76 1.1 355.76 1.1 355.77 1.1" style="fill:#1d1d1b"/><polygon points="279.03 0.36 279.03 0.36 279.03 0.36 279.03 0.36" style="fill:#1d1d1b"/><polygon points="279.03 0.36 279.03 0.36 279.03 0.36 279.03 0.36" style="fill:#1d1d1b"/><path d="M201.15,150.26c-.32,0-.33.06.35.09A.85.85,0,0,1,201.15,150.26Z" transform="translate(152.71 -148.77)" style="fill:#1d1d1b"/><path d="M77.39,150.64l-.13,0,.26,0Z" transform="translate(152.71 -148.77)" style="fill:#1d1d1b"/><polygon points="230.1 1.87 230.1 1.87 230.11 1.87 230.1 1.87 230.1 1.87" style="fill:#1d1d1b"/><polygon points="230.1 1.87 230.1 1.87 230.11 1.87 230.1 1.87 230.1 1.87" style="fill:#1d1d1b"/><path d="M331.18,150.49c-.77,0-1.2-.05-1.49-.08C329.65,150.45,330,150.48,331.18,150.49Z" transform="translate(152.71 -148.77)" style="fill:#1d1d1b"/><path d="M406.69,149c1.16,0,1.58,0,2.16.05-.05,0-.51-.09.24-.09Z" transform="translate(152.71 -148.77)" style="fill:#1d1d1b"/><path d="M429.92,149.91c.35,0,.74,0,1.09,0l-.1-.07C429.42,149.82,428.37,149.88,429.92,149.91Z" transform="translate(152.71 -148.77)" style="fill:#1d1d1b"/><path d="M411.31,149.45a18.77,18.77,0,0,0,3.38.07h-.3C414.88,149.33,413.09,149.39,411.31,149.45Z" transform="translate(152.71 -148.77)" style="fill:#1d1d1b"/><path d="M415.08,149.51h1.55A6.32,6.32,0,0,0,415.08,149.51Z" transform="translate(152.71 -148.77)" style="fill:#1d1d1b"/><path d="M394.94,149c.89-.17-5.32.2-.95.11C394.78,149.14,394.49,148.94,394.94,149Z" transform="translate(152.71 -148.77)" style="fill:#1d1d1b"/></svg>