<svg xmlns="http://www.w3.org/2000/svg" viewBox="0 0 2.79 780"><path d="M9.83,84.22c0,1.65,0,2.49,0,.12Z" transform="translate(-9.29 -11)" style="fill:none"/><path d="M10,606.84v1C10,608.4,10,609,10,606.84Z" transform="translate(-9.29 -11)" style="fill:none"/><path d="M10.53,319.82q0-1.69,0-3.39C10.52,317.68,10.52,318.82,10.53,319.82Z" transform="translate(-9.29 -11)" style="fill:none"/><path d="M10.83,403.75c0-1.32,0-2.63,0-3.94A32.37,32.37,0,0,0,10.83,403.75Z" transform="translate(-9.29 -11)" style="fill:none"/><polygon points="0.43 38.98 0.43 38 0.32 32.91 0.43 38.98" style="fill:#1d1d1b"/><path d="M10.15,29.19c0,2.13.07,3.94.11,5.58,0-1.74,0-3.59,0-6C10.23,27.49,10.19,30.56,10.15,29.19Z" transform="translate(-9.29 -11)" style="fill:#1d1d1b"/><path d="M10.26,34.77c0,1,.06,1.88.07,2.75" transform="translate(-9.29 -11)" style="fill:none"/><path d="M10.37,18.78l.09-1.21V16.35Q10.37,17.55,10.37,18.78Z" transform="translate(-9.29 -11)" style="fill:#1d1d1b"/><path d="M10.44,17.57Z" transform="translate(-9.29 -11)" style="fill:#1d1d1b"/><path d="M10.44,19.74Z" transform="translate(-9.29 -11)" style="fill:#1d1d1b"/><polygon points="1.16 6.55 1.16 6.55 1.16 6.55 1.16 6.55 1.16 6.55" style="fill:#1d1d1b"/><polygon points="1.16 6.55 1.16 6.55 1.16 6.55 1.16 6.55 1.16 6.55" style="fill:#1d1d1b"/><path d="M10.44,16.35v-.3" transform="translate(-9.29 -11)" style="fill:none"/><path d="M11.13,100.46c.09,1.38.17,4.27.29,1.48C11.32,100.94,11.26,102.54,11.13,100.46Z" transform="translate(-9.29 -11)" style="fill:#1d1d1b"/><path d="M10.49,11l.07,3.54V11.25S10.52,11.9,10.49,11Z" transform="translate(-9.29 -11)" style="fill:#1d1d1b"/><path d="M10.84,427.66v0Z" transform="translate(-9.29 -11)" style="fill:#1d1d1b"/><path d="M10.84,416.5l0-.28C10.83,416.75,10.85,417,10.84,416.5Z" transform="translate(-9.29 -11)" style="fill:#1d1d1b"/><path d="M9.8,212.94v-3.81a45,45,0,0,0-.1,4.5l.09-.68h0Z" transform="translate(-9.29 -11)" style="fill:#1d1d1b"/><path d="M10.38,323.84l-.08-1.52.06,2.18v-.66Z" transform="translate(-9.29 -11)" style="fill:#1d1d1b"/><path d="M10.73,326.1l-.06,3C10.69,328.41,10.72,327.45,10.73,326.1Z" transform="translate(-9.29 -11)" style="fill:#1d1d1b"/><path d="M11,490.86c0-2.83,0-1.59-.09-1.81Z" transform="translate(-9.29 -11)" style="fill:#1d1d1b"/><path d="M9.83,110.94c0,1.94-.05,3.49-.06,4.86Q9.89,113.37,9.83,110.94Z" transform="translate(-9.29 -11)" style="fill:#1d1d1b"/><path d="M9.86,423.3a9.65,9.65,0,0,0,.06,1.32h0C9.93,423.64,9.91,423.09,9.86,423.3Z" transform="translate(-9.29 -11)" style="fill:#1d1d1b"/><path d="M9.77,121.42V115.8C9.72,117.67,9.72,119.55,9.77,121.42Z" transform="translate(-9.29 -11)" style="fill:#1d1d1b"/><path d="M10.89,711.36v0Z" transform="translate(-9.29 -11)" style="fill:#1d1d1b"/><path d="M10,689.19v0Z" transform="translate(-9.29 -11)" style="fill:#1d1d1b"/><path d="M9.75,68.28Z" transform="translate(-9.29 -11)" style="fill:#1d1d1b"/><path d="M10.11,61.23a2.16,2.16,0,0,0,0,.57A3.56,3.56,0,0,1,10.11,61.23Z" transform="translate(-9.29 -11)" style="fill:#1d1d1b"/><path d="M10.33,136.09v0Z" transform="translate(-9.29 -11)" style="fill:#1d1d1b"/><path d="M9.75,68v0Z" transform="translate(-9.29 -11)" style="fill:#1d1d1b"/><path d="M9.75,66.39v0Z" transform="translate(-9.29 -11)" style="fill:#1d1d1b"/><path d="M9.75,68v0Z" transform="translate(-9.29 -11)" style="fill:#1d1d1b"/><path d="M10.63,592.59c0,1.47,0,.82,0-.32Z" transform="translate(-9.29 -11)" style="fill:#1d1d1b"/><path d="M10.74,246.83Z" transform="translate(-9.29 -11)" style="fill:#1d1d1b"/><path d="M10.81,252.23c-.08-1.72-.11-3.45-.07-5.17l-.26,1.72Z" transform="translate(-9.29 -11)" style="fill:#1d1d1b"/><path d="M11.69,438v1.48c.26-4.7-.4-3.49-.31-9.56,0-2.1.12-3.59.18-2.14l-.13-4.7c0-1.32.11-1,.09.32v-7.18h0c-.08-1-.22-3.35-.27-4.48.07-1.82,0,.92.12.45l-.13-3.94c.14-1.63.28,1.67.26,4.41.54-3.7-.14-3.3.18-11.31v3.76c.32-2.42.21-5.35.39-9.59-.1,1-.48,8.5-.61,4.18V394.5a25.22,25.22,0,0,0,.14-5.14l.26.2c-.08-3.07-.21-2.82-.32-4.64a19.44,19.44,0,0,1,.39-4.93c0-5.49-.32,3.78-.37-2.71.1-4.57,0-7.77-.15-13.22.08-3.21.16.55.23-.6l-.21-2.83c0-.69.07-.46.1-.36-.18-1.3-.28-2.62-.33-3.94-.28-1,.42-7.69.1-12.34.07-1.15.15.55.25.21-.2-6.37-.15-5.47-.44-10.69l.17-4.47c-.18,3.28-.42-.91-.61-4.57-.08,1.16-.17,2.15-.2,2.82l-.14-5.85c0-.7.12-.11.23.84l-.06-1.07c.1-2.09.25-1,.38.5l-.16,2.1h0c.15,1.45.33,2.8.48,2.5a8.63,8.63,0,0,0,0-1.92c0,.38.08.62.1.45a14.72,14.72,0,0,0-.1-1.76l.3-1.32-.12-.32.18-7.65c-.29-5.48-.71-10.24-.82-18.92.21,2.15.33.46.58.59-.26,2.36.11,6.72.06,11.21,0-2.33.15-1.82.19-1.22l-.24-8c.2.19.15-1.69.24-3.79-.4,1.57-.27-6-.39-9.2.14-.19.27.6.24,4.57.3-4.38-.48-5.68-.22-10a14.74,14.74,0,0,0,0,1.88c-.11-2.27,0-7.88.1-6.57v1c0-6.46,0-19.7-.34-20.63a3.55,3.55,0,0,1,.48,1.23l-1.14-11.53c.29,1,1-2.88,1.15,2.48,0-1.54.1-3.44,0-6.68,0,1-.42,2.62-.44,1.18.32-3.94.17-2.73.45-7.58-.06,1.58-.53-.18-.51-2.63.06.4.45-.19.5.71l-.45-6.2c.08,1.55.38.28.51-1.1-.09.64,0-5.35,0-7l-.11,2.63c.07-7-.64-6.91-.62-13.83.1.84.57,2.07.64-1.45a111.84,111.84,0,0,1-1.25-13.3l.14-1.17-.15-4.7c.35,2.92,1.08,11.15,1.37,15.64.12-1.54.16-3.09.13-4.64.14-1.38.2,2.13.2,3.29l.08-9.12c-.27.41-.27-7-.49-6.57l.27,9.91c-.26.39-.76-5.74-.71-12.19.1-1.64.47,1.23.57,1.09-.1-.83-.17-6.12-.11-6.71l.15,2.73c.1-3.59-.36-5.87-.1-10.18,0-1.5.34-4.45.18-4.72-.31,2.43-1.24,2.91-1.5,1.32,0-.53.3-7.88.46-9.52.23-2.46.57,3.69.78,1.6a15.35,15.35,0,0,1-.2-2c.07-1.57.23.65.2-2.75-.28-.58,0-6.92-.23-1.61-.08-3.33,0-3.54,0-7.45-.17,1.31-.59-3.51-.67-6.84.06.19.16-.56.2-.92,0-6.82.14-10.51.15-16.84.07-.59.15-3.67.26-2.35,0-.92-.13-1.76-.15-3.72.25-3.8,0,4.37.33,1.48-.15-.24-.22-5.08-.32-7.88A81.73,81.73,0,0,0,11,116c-.35,0-.7-4.86-.86-11.51-.08-5.26.22-2.29.17-3.21.06-9.92-.58-8.46-.34-16.69.21-3.27.42-.15.58-.87.09,4.3-.13,6.57-.13,9.52l.11-3.6c.07,1.32.13,4.26.06,5.82.2-2.74,0-16.77.22-24.43-.08-1.31-.15-3.71-.24-2.62v2.41c-.18,2.24-.25-4.55-.32-1.48-.12-3.26-.32-6.91-.23-11.48l.25-.85a38,38,0,0,0-.07,4.27c-.1-1.91.34-7,0-9.11L10,55.41c-.12-3.26-.38-7.3-.31-11.35-.23,1.84,0,.93-.26,3.81.36-2.5,0,10.38.36,6.37-.33,2.94-.13,5.11-.41,9,.07-.12.14-1.31.11,2l.07.74h0v-.06a14.15,14.15,0,0,1,.12-1.74c.19,1.7.19,7.11.28,9s-.09-.85-.17.25l.13,2.73c-.17.28-.29,5.37-.39.6v4.21c-.1,2.51-.15,6-.07,8.11s.2,5.11.06,3.35l.11,6.73h0c0,6.63.31,13.64,0,21.22,0,2.24.1,4.55,0,8.28l-.16.72c.07,2.86-.16,8.6,0,9.84-.42,3.08-.1,13.89-.17,18.94l.26.3c0,3.46,0,6.79.13,11.1l.18-.27c.14,3.71-.13,9.54-.12,15.41a24,24,0,0,1,0-2.94c-.42,7,.29,14.8,0,21.16V207l-.1,2.19.1-1.85v4.9l-.19.76v.43c-.07,1.78.09,1.43.24.49,0,.9.08,1.75.12,2.4-.32,1.45.11,4.77-.23,6.74.16,1.22.12,9.19.46,10.11v-.38c0,2-.08,4.05,0,5.86l-.24.87.33,4.42c-.16,2.63-.24,3.8-.43,1.13.29,6.44.11,5.26.4,10.71l-.16-.27c0,2,.22,5.1.09,6.27-.31,4.39,0,21.68-.33,32.94.47-2.18-.21,5.25.15,5.67-.11.66-.17,2.22-.27.4.11,5.74-.17,8.63.13,12.59-.11.65-.16-1.23-.22-.65a19.54,19.54,0,0,1,0,2.42c-.07.58-.09-.84-.14-1.75,0,5.87.36,6.46.68,6.89a37.93,37.93,0,0,0,.08,6.57c-.11,1-.22,2.76-.25-.9,0,2.05-.16,12.52.09,12.74-.06.63,0,2.87,0,3.41v8.2a59.12,59.12,0,0,1,.11,7.41v-.1c-.22,8.34.11,3.6-.15,11.82l.19-.45c.42.78-.25,7.3-.08,12.08l.11-1.73c.13,2.63-.57,7.3-.62,9.92a14.48,14.48,0,0,1-.09-1.7c-.24,6.86.25.9.32,6-.14.95-.35-1.22-.37,2.22-.12,1.72.43,10,.17,14.7.11-1,.21-2.06.29.32,0,3.63-.4,9.83-.06,13.13a2.5,2.5,0,0,1-.09.66h0c.09,2.78.14,9.05.33,10.71-.67,2.63.31,17.31-.29,17.25v8.34a91,91,0,0,0,.25,9.34c0,1.31-.1.34-.12.23-.14,8-.11,8.79.2,15.5l-.2.7c.11,1.81-.32,11.56-.08,19.4a4.12,4.12,0,0,1-.1-.86c.24,8.83-.55,21.12.18,24.37l.18,5.81c.06-7.52.31,1.13.43-2,0,3-.22,7.66-.26,4v-.57c-.37-1.32-.13,9.36-.39,9.19,0,14.84-.25,29.3-.25,43.17l.3-1.6v4.86c-.07,1.31-.23,1.71-.22-1.75a37.51,37.51,0,0,0,.2,5.9c-.13,6.76-.34-2.63-.35-.58v2.18q.27,3.31.24,6.65a17.38,17.38,0,0,1-.2,2.39,13.71,13.71,0,0,0,0,1.57v6.11l.24-2.44c.11,2.7,0,5.74.25,2.93-.4,4.13-.15,22.76-.27,25.29.16,3.8.16,7.54.14,12.16,0-1.14.31-1.82.27,2.17-.53-1.47-.23,7.32-.61,10.51.26-2.88,0,11.36.42,6.84,0,3.34-.2.2-.32,2.73.2,7.88-.14,17.48-.07,27.3.07.15.18-1.49.29.61l-.36,5.18a26.27,26.27,0,0,1,.16,5.32c0-.5.15-1.24.18,0-.36,19.2.27,39.25-.38,58.77.14-2.63.15-.88.16,1.14,0-1.31.17,0,.27-.23l-.27,8.17c.26,1.49,0,8.76.28,9.61v-2.63c.3,3.44.67-4.8,1.05-4.29-.34-3.86.5-10.15,0-16.48.08-1.4.13,1.19.21.44a60.56,60.56,0,0,1-.12-7.13v.41c0-10.08.12-14.38.23-25.71l-.19.84c0-2.42.09-2.94.12-4.08-.28-2.8,0,6.83-.33,4.28.4-3.22,0-17.15.45-19.32,0-3.74-.22,1.09-.22-2.62l.12-1-.15-1a16,16,0,0,1,.27-3.78v2.33c.13-3.18,0-9,0-10.05l-.07,3.58c-.12-10.2,0-22.66-.2-32.54l-.08.75c-.17-7.53.09-6,0-14.31v.31c-.08-1.66-.14-3.86-.12-6.12.1,2.08.21-3.94.32-1.2q0-4.68-.36-9.34l.14-1.23c-.18-2-.27-4.09-.25-6.14.14,3.41.24-2.62.4,1.17.33-8.66-.32-12.87.16-16.85-.41-3.94-.24,7.5-.32,5.26-.14,1.87-.31-3.29-.27-6s.54-4.7.52-11.66v1.43c.11-2.62-.14-5.11,0-8.31-.25-1.79,0-4.15-.31-4.66l.07,6.38c-.07-3.61-.44-7-.27-13,.07.47.15,2.25.2,3.47.1-1.75,0-3.36,0-5.16.32.51.06,7.76.31,11.63.13-1.86-.24-7.34.11-5.38-.44-2.81.06-6.86-.28-11.59l.19.32c0-.75-.11-2.3-.11-3.67l.24,2.49c-.21-3.83.19-7.36.08-11,0,7.67-.24,1.72-.37,5-.26-9.47.5-5.44.41-16,0,1.43-.12,5.37-.21,3.12,0-2,.11-4.67.21-5.91,0-7-.19,1.08-.31-1.9a49.67,49.67,0,0,0-.16-6.57h.18c.14-8-.39-2.13-.25-9.32l.28,3-.08-3.75.22.77c-.16-4.08-.11-5.36,0-9.35-.14.93-.36-.52-.36-4.07.11-2.42.19,1.31.16-3.66a21.64,21.64,0,0,1,.09,4.55,9.33,9.33,0,0,0,.18,1.32c.14-2.63,0-6.57,0-8.36v2l-.27-7.29c.07-1.14.13-.23.2.67,0-1.47-.12-2.49-.14-4.66.16.57.32.43.4,3.5L11.6,506c.07-.46.2-3.55.25-2.63.09-3.83-.3-9.43-.18-14.52h0c0-.28,0-.8-.09-1.88,0-4.79.23-9,0-14.71l.28-3.22c0-4.45-.36,4.36-.47-3-.09-5.25.25-2,.32-3.79a116.23,116.23,0,0,1-.2-11.95c.06,1.6,0,2.85,0,4.33l.16-3.66c.25,4.42.16,7.63.38,4.19h0c-.54-.54,0-14.27-.59-14.78ZM11,319.82v-3.39a31.94,31.94,0,0,1,0,3.39ZM9.7,84.22v.12c0,2.37,0,1.53,0-.12ZM9.86,607.8v-1c.09,2.16,0,1.56,0,1Zm1.73-204a17.3,17.3,0,0,1,0-3.94,34.54,34.54,0,0,1,0,3.94Z" transform="translate(-9.29 -11)" style="fill:#1d1d1b"/><polygon points="0.52 201.94 0.51 201.94 0.51 201.95 0.52 201.94 0.52 201.94" style="fill:#1d1d1b"/><polygon points="0.52 201.94 0.51 201.94 0.51 201.95 0.52 201.94 0.52 201.94" style="fill:#1d1d1b"/><polygon points="1.1 312.82 1.1 312.84 1.1 312.84 1.1 312.84 1.1 312.82" style="fill:#1d1d1b"/><polygon points="1.1 312.82 1.1 312.84 1.1 312.84 1.1 312.84 1.1 312.82" style="fill:#1d1d1b"/><polygon points="0.66 413.61 0.66 413.61 0.66 413.61 0.66 413.61" style="fill:#1d1d1b"/><polygon points="0.66 413.61 0.66 413.61 0.66 413.61 0.66 413.61" style="fill:#1d1d1b"/><path d="M10.63,326.33c0,.43,0,.44.06-.45A1.68,1.68,0,0,1,10.63,326.33Z" transform="translate(-9.29 -11)" style="fill:#1d1d1b"/><path d="M10.92,488.88v0Z" transform="translate(-9.29 -11)" style="fill:#1d1d1b"/><polygon points="1.64 477.88 1.64 477.88 1.64 477.87 1.64 477.88 1.64 477.88" style="fill:#1d1d1b"/><polygon points="1.64 477.88 1.64 477.88 1.64 477.87 1.64 477.88 1.64 477.88" style="fill:#1d1d1b"/><path d="M10.73,155.55c0,1,0,1.58-.05,2A15.81,15.81,0,0,0,10.73,155.55Z" transform="translate(-9.29 -11)" style="fill:#1d1d1b"/><path d="M9.75,56.38c0-1.52,0-2.08,0-2.84,0,.07-.06.67-.06-.31Z" transform="translate(-9.29 -11)" style="fill:#1d1d1b"/><path d="M10.32,25.87V24.44l-.05.13C10.26,26.53,10.3,27.91,10.32,25.87Z" transform="translate(-9.29 -11)" style="fill:#1d1d1b"/><path d="M10,50.31c.08-1.47.1-3,.05-4.44v.4C10,45.62,10,48,10,50.31Z" transform="translate(-9.29 -11)" style="fill:#1d1d1b"/><path d="M10.07,45.36v-2A17.35,17.35,0,0,0,10.07,45.36Z" transform="translate(-9.29 -11)" style="fill:#1d1d1b"/><path d="M9.76,71.81c-.11-1.17.12,7,.07,1.25C9.84,72,9.72,72.4,9.76,71.81Z" transform="translate(-9.29 -11)" style="fill:#1d1d1b"/></svg>